<ttFont>
          <CharString index="0">
            437 -7 rmoveto
            -100 callgsubr
            -120 616 -92 callgsubr
            return
          </CharString>
          <CharString index="1">
            456 30 callsubr
            -192 -27 -176 -101 -109 44 -169 172 vhcurveto
            -94 callsubr
            141 189 rmoveto
            -78 callgsubr
            return
          </CharString>
          <CharString index="2">
            rmoveto
            26 -22 22 -26 -26 -22 32 callgsubr
            22 -21 26 26 22 21 28 vhcurveto
            -151 hmoveto
            26 -21 22 -27 -26 -21 32 callgsubr
            21 -21 26 27 21 21 28 vhcurveto
            endchar
          </CharString>
          <CharString index="3">
            0 4 50 84 vvcurveto
            69 -3 91 -9 106 vhcurveto
            -106 -13 rlineto
            22 -136 -6 -156 -113 vvcurveto
            -174 -52 -68 -60 -59 -23 50 158 65 0 25 callgsubr
            239 vhcurveto
            -100 15 rlineto
            -47 -172 -3 -206 0 vvcurveto
            return
          </CharString>
          <CharString index="4">
            rmoveto
            21 -16 16 -20 -20 -17 -16 -21 -18 13 -16 17 -2 vhcurveto
            -16 -13 -15 -14 -8 vhcurveto
            11 -12 rlineto
            39 9 20 40 38 vvcurveto
            return
          </CharString>
          <CharString index="5">
            -103 callsubr
            endchar
          </CharString>
          <CharString index="6">
            443 -102 callgsubr
            return
          </CharString>
          <CharString index="7">
            351 502 rmoveto
            -99 callgsubr
            return
          </CharString>
          <CharString index="8">
            538 305 rmoveto
            64 -5 94 -7 63 vhcurveto
            -90 -6 rlineto
            10 -82 8 -113 -83 vvcurveto
            -22 -13 -146 -36 -7 vhcurveto
            -53 -15 217 41 35 1 66 2 35 hvcurveto
            -78 -4 rlineto
            -49 -2 -30 -352 -54 hhcurveto
            -37 -14 135 25 88 10 118 12 87 hvcurveto
            -97 -4 rlineto
            -4 -50 -3 -81 -51 vvcurveto
            -177 25 -157 110 61 34 94 90 17 vhcurveto
            -80 12 33 -104 74 hhcurveto
            101 28 170 146 hvcurveto
            return
          </CharString>
          <CharString index="9">
            -68 -4 -63 -371 -100 hhcurveto
            -10 -51 2 182 63 7 84 -66 callgsubr
            -82 -71 vvcurveto
            -185 33 -94 103 vhcurveto
            0 return
          </CharString>
          <CharString index="10">
            -50 -38 -27 -50 -41 vvcurveto
            -52 53 -27 45 34 35 13 27 31 vhcurveto
            33 37 30 14 23 hhcurveto
            28 20 -24 -27 -26 -21 -28 -52 -29 hvcurveto
            0 -48 -27 -62 -12 -13 1 3 -13 vhcurveto
            -9 -44 rlineto
            -6 24 25 -3 24 hhcurveto
            126 107 60 110 11 -1 10 -3 11 hvcurveto
            56 -15 -48 28 -52 -87 -58 -96 -50 hhcurveto
            -12 -16 12 22 26 22 33 33 25 hvcurveto
            -6 19 22 -4 24 hhcurveto
            return
          </CharString>
          <CharString index="11">
            351 512 rmoveto
            -66 -4 -63 -393 -99 hhcurveto
            -7 -55 6 195 64 7 86 -66 callgsubr
            -84 -73 vvcurveto
            -184 32 -111 98 8 97 5 179 59 vhcurveto
            -6 vlineto
            -158 -9 -157 -128 -13 -62 2 49 -43 vhcurveto
            -38 -55 rlineto
            50 -63 108 8 callgsubr
            128 61 100 135 7 hvcurveto
            0 8 320 17 182 vhcurveto
            return
          </CharString>
          <CharString index="12">
            -95 callgsubr
            214 hlineto
            return
          </CharString>
          <CharString index="13">
            0 154 6 39 162 vhcurveto
            -60 17 rlineto
            -83 callgsubr
            return
          </CharString>
          <CharString index="14">
            420 2 -96 callgsubr
            return
          </CharString>
          <CharString index="15">
            rmoveto
            -52 64 -126 -139 28 -36 rlineto
            endchar
          </CharString>
          <CharString index="16">
            -20 39 callsubr
            hintmask 11100100
            -106 callsubr
            hintmask 00011000
            return
          </CharString>
          <CharString index="17">
            -20 hstemhm
            48 callsubr
            hintmask 11100110
            -107 callgsubr
            hintmask 00011000
            return
          </CharString>
          <CharString index="18">
            -24 callsubr
            -72 -37 161 175 174 36 120 79 83 31 -120 -174 vhcurveto
            return
          </CharString>
          <CharString index="19">
            -22 callgsubr
            -91 callgsubr
            hintmask 0001100000000000
            return
          </CharString>
          <CharString index="20">
            337 698 rmoveto
            1 -44 1 -48 -49 vvcurveto
            -138 -4 -150 -5 -104 vhcurveto
            -174 525 -109 2 rlineto
            5 -161 2 -162 -161 vvcurveto
            -70 0 -69 -1 -69 vhcurveto
            79 1 rlineto
            return
          </CharString>
          <CharString index="21">
            0 callsubr
            -103 callgsubr
            hintmask 00110000
            return
          </CharString>
          <CharString index="22">
            87 117 84 208 2 hvcurveto
            66 -13 92 -57 58 vhcurveto
            -215 vmoveto
            -160 -1 -82 -64 -66 hhcurveto
            -62 -71 58 169 123 43 69 95 4 hvcurveto
            24 20 -5 -7 17 hvcurveto
            -37 -95 38 -21 44 78 rlineto
            33 -44 5 -64 -41 vvcurveto
            return
          </CharString>
          <CharString index="23">
            -20 17 callsubr
            hintmask 11001010
            446 562 rmoveto
            -42 callgsubr
            hintmask 11001100
            -71 callsubr
            hintmask 11001010
            -51 callgsubr
            hintmask 00110000
            return
          </CharString>
          <CharString index="24">
            27 callsubr
            hintmask 10100110
            -100 callsubr
            hintmask 01100110
            -46 callgsubr
            hintmask 00011000
            return
          </CharString>
          <CharString index="25">
            31 callsubr
            216 61 hintmask 11100110
            -96 callsubr
            hintmask 00011000
            return
          </CharString>
          <CharString index="26">
            26 -20 20 -25 -25 -21 -20 -26 -22 16 -20 22 -3 vhcurveto
            -1 -20 -16 -19 -17 -9 13 -15 rcurveline
            49 11 25 50 47 vvcurveto
            return
          </CharString>
          <CharString index="27">
            rmoveto
            21 17 17 21 21 17 -17 -21 -21 -17 -17 -21 -21 -17 17 21 vhcurveto
            -51 hmoveto
            -48 41 -39 48 49 41 39 48 48 -41 40 -49 -48 -41 -40 -48 vhcurveto
            endchar
          </CharString>
          <CharString index="28">
            -55 callsubr
            rlineto
            -172 18 145 -4 15 hhcurveto
            156 27 101 48 52 -30 74 -139 23 hvcurveto
            -74 12 -38 45 38 return
          </CharString>
          <CharString index="29">
            462 468 rmoveto
            247 -173 0 -7 -170 -80 -118 -256 -237 84 -125 149 5 185 0 313 vhcurveto
            -1 -31 -31 0 -31 hhcurveto
            -44 -45 1 2 -45 hvcurveto
            -79 vlineto
            return
          </CharString>
          <CharString index="30">
            209 -56 145 -149 -63 callsubr
            return
          </CharString>
          <CharString index="31">
            53 -57 -86 1 -4 hhcurveto
            -116 -2 -77 -76 -94 vvcurveto
            -107 83 -50 91 return
          </CharString>
          <CharString index="32">
            -20 39 callsubr
            hintmask 10100100
            -58 callsubr
            hintmask 01100100
            -37 callsubr
            hintmask 10100100
            -66 callsubr
            hintmask 00011000
            return
          </CharString>
          <CharString index="33">
            hstem
            58 79 216 -88 callgsubr
            return
          </CharString>
          <CharString index="34">
            77 -260 177 215 72 -212 298 268 67 return
          </CharString>
          <CharString index="35">
            rmoveto
            26 -23 22 -26 -26 -22 -22 -26 -27 22 -22 26 26 23 22 27 vhcurveto
            endchar
          </CharString>
          <CharString index="36">
            -48 callsubr
            -116 80 -83 125 128 48 74 77 -41 callgsubr
            return
          </CharString>
          <CharString index="37">
            32 706 rmoveto
            2 -89 94 7 93 3 92 1 rlinecurve
            -93 -191 -107 -188 -103 -187 8 -62 rcurveline
            358 hlineto
            -1 73 rlineto
            -87 -77 1 4 -86 hvcurveto
            90 187 88 184 104 181 2 76 rcurveline
            return
          </CharString>
          <CharString index="38">
            -20 hstemhm
            31 99 259 84 hintmask 11001100
            -89 callgsubr
            hintmask 00110000
            return
          </CharString>
          <CharString index="39">
            rmoveto
            -61 2 rlineto
            -4 1 -4 -4 vvcurveto
            -24 -9 -31 -28 return
          </CharString>
          <CharString index="40">
            rmoveto
            -57 -5 rlineto
            6 -12 5 -12 -13 vvcurveto
            -14 -5 -9 -13 vhcurveto
            return
          </CharString>
          <CharString index="41">
            -37 -117 -102 -3 0 vvcurveto
            -92 -48 131 80 81 14 121 116 hvcurveto
            0 136 0 10 -148 vhcurveto
            return
          </CharString>
          <CharString index="42">
            -29 callgsubr
            -181 93 -120 116 return
          </CharString>
          <CharString index="43">
            -53 callgsubr
            -1 hlineto
            6 123 7 125 10 124 rrcurveto
            return
          </CharString>
          <CharString index="44">
            -37 callgsubr
            -210 66 -193 130 return
          </CharString>
          <CharString index="45">
            83 -237 rlineto
            -129 663 -64 callsubr
            return
          </CharString>
          <CharString index="46">
            442 605 rmoveto
            -71 50 -48 -122 rlineto
            10 -25 -30 6 -35 hhcurveto
            -116 -89 -82 -185 -93 25 -113 78 -56 hvcurveto
            return
          </CharString>
          <CharString index="47">
            -1 -27 -27 1 -28 hhcurveto
            -29 -28 -1 1 -28 hvcurveto
            return
          </CharString>
          <CharString index="48">
            425 695 rmoveto
            -60 21 -13 -30 rlineto
            27 -30 -38 15 -47 61 callgsubr
            -110 18 -104 36 -76 hvcurveto
            -34 -76 52 -8 14 30 rlineto
            -37 29 37 -22 44 hhcurveto
            129 86 193 210 105 -14 89 -33 62 hvcurveto
            -44 -260 rmoveto
            -24 callsubr
            -32 -25 31 50 -18 vhcurveto
            185 399 rlineto
            7 -41 3 -49 -54 vvcurveto
            -229 hmoveto
            174 36 120 79 35 26 -22 -37 18 vhcurveto
            -181 -407 rlineto
            -9 51 -4 60 61 vvcurveto
            return
          </CharString>
          <CharString index="49">
            446 345 rmoveto
            -42 callsubr
            -140 64 -146 139 hvcurveto
            return
          </CharString>
          <CharString index="50">
            hintmask 11000000
            -70 callsubr
            hintmask 00110000
            return
          </CharString>
          <CharString index="51">
            14 callsubr
            229 -163 63 -63 97 -97 146 return
          </CharString>
          <CharString index="52">
            87 -18 20 -30 -33 vvcurveto
            -38 -35 -35 -55 -2 vhcurveto
            -7 -92 0 112 -13 hvcurveto
            -80 -4 return
          </CharString>
          <CharString index="53">
            63 callgsubr
            hintmask 11100100
            -77 callgsubr
            hintmask 00011000
            return
          </CharString>
          <CharString index="54">
            54 callgsubr
            19 callgsubr
            hintmask 1010001000000000
            -16 callsubr
            hintmask 1010000100000000
            -49 callgsubr
            hintmask 1010010000000000
            -45 callsubr
            hintmask 1100100000000000
            -17 callsubr
            54 callgsubr
            -95 callsubr
            return
          </CharString>
          <CharString index="55">
            1 11 1 11 10 vvcurveto
            183 -187 2 0 -147 -50 -97 -79 -53 36 -88 140 -28 vhcurveto
            return
          </CharString>
          <CharString index="56">
            31 callgsubr
            hintmask 11001010
            -87 callsubr
            hintmask 11000110
            -56 callgsubr
            hintmask 00110000
            return
          </CharString>
          <CharString index="57">
            rmoveto
            -68 callgsubr
            return
          </CharString>
          <CharString index="58">
            -85 -7 rlineto
            16 -376 0 -125 0 -43 callgsubr
            79 38 callsubr
            return
          </CharString>
          <CharString index="59">
            -208 299 -30 -147 -38 callsubr
            return
          </CharString>
          <CharString index="60">
            -40 callsubr
            -10 -7 9 10 return
          </CharString>
          <CharString index="61">
            -20 hstemhm
            58 74 204 66 hintmask 11001100
            -79 callgsubr
            hintmask 00110000
            return
          </CharString>
          <CharString index="62">
            22 2 46 callgsubr
            1 1 64 rcurveline
            return
          </CharString>
          <CharString index="63">
            420 10 rmoveto
            -25 callgsubr
            407 vlineto
            -84 4 rlineto
            1 13 -232 -463 hvcurveto
            -23 callsubr
            return
          </CharString>
          <CharString index="64">
            460 358 rmoveto
            1 13 0 12 12 vvcurveto
            -3 callsubr
            vhcurveto
            -14 -694 rlineto
            14 -22 87 8 callgsubr
            120 178 124 248 14 hvcurveto
            -98 11 rmoveto
            -20 -260 -128 -62 -89 -9 44 625 rcurveline
            201 -2 -8 -278 -14 vvcurveto
            return
          </CharString>
          <CharString index="65">
            67 -7 -44 132 -165 hhcurveto
            -142 -62 -121 -140 return
          </CharString>
          <CharString index="66">
            rlineto
            15 42 -1 -21 -10 -9 -12 -12 -11 -13 12 9 -7 hvcurveto
            -25 -35 rlineto
            return
          </CharString>
          <CharString index="67">
            rmoveto
            -29 37 rlineto
            -8 -9 -12 -8 -12 hhcurveto
            return
          </CharString>
          <CharString index="68">
            11 -232 6 -230 3 -229 rrcurveto
            61 hlineto
            4 114 35 42 34 44 34 -31 callsubr
            -58 -98 -61 -93 rrcurveto
            4 155 2 156 157 vvcurveto
            return
          </CharString>
          <CharString index="69">
            vvcurveto
            -70 -57 -23 -39 -34 -70 14 128 vhcurveto
            -92 4 rlineto
            return
          </CharString>
          <CharString index="70">
            5 5 1 5 hhcurveto
            0 162 13 38 139 vhcurveto
            -64 31 rlineto
            return
          </CharString>
          <CharString index="71">
            54 506 rmoveto
            -494 82 488 vlineto
            return
          </CharString>
          <CharString index="72">
            11 4 -27 callsubr
            return
          </CharString>
          <CharString index="73">
            -148 8 74 629 46 callsubr
            return
          </CharString>
          <CharString index="74">
            246 -178 0 -7 -175 -82 -127 -247 return
          </CharString>
          <CharString index="75">
            63 -11 -14 callsubr
            return
          </CharString>
          <CharString index="76">
            44 rlinecurve
            27 -90 34 -85 37 -82 86 20 rcurveline
            -51 97 -48 99 -39 103 41 56 41 58 40 60 -92 31 rcurveline
            -56 -99 return
          </CharString>
          <CharString index="77">
            -50 107 -126 8 callgsubr
            -115 -68 -124 -148 -175 91 -111 122 hvcurveto
            0 98 0 51 93 vhcurveto
            return
          </CharString>
          <CharString index="78">
            16 -4 16 -5 15 vhcurveto
            endchar
          </CharString>
          <CharString index="79">
            -28 vlineto
            -77 -1 rlineto
            -71 77 vlineto
            1 callsubr
            208 2 135 2 78 vhcurveto
            return
          </CharString>
          <CharString index="80">
            77 177 72 298 67 return
          </CharString>
          <CharString index="81">
            1 callgsubr
            2 88 rlineto
            -89 -91 -42 -155 2 0 1 0 hvcurveto
            0 1 -261 -259 -43 callgsubr
            81 38 callsubr
            endchar
          </CharString>
          <CharString index="82">
            54 695 rmoveto
            10 -692 rlineto
            58 hlineto
            10 686 rlineto
            return
          </CharString>
          <CharString index="83">
            -175 -48 -161 -72 return
          </CharString>
          <CharString index="84">
            65 2 rlineto
            150 19 83 275 65 hhcurveto
            23 14 -41 -78 6 hvcurveto
            0 11 -115 10 -197 vhcurveto
            return
          </CharString>
          <CharString index="85">
            -70 45 -57 65 78 vvcurveto
            79 39 81 73 vhcurveto
            return
          </CharString>
          <CharString index="86">
            62 -311 49 74 67 20 76 12 69 423 70 return
          </CharString>
          <CharString index="87">
            rmoveto
            -148 -69 -62 -65 -60 -89 54 151 128 39 87 93 53 92 -47 -163 6 vhcurveto
            return
          </CharString>
          <CharString index="88">
            57 10 40 56 65 hhcurveto
            57 65 -35 -130 -1 hvcurveto
            0 0 -9 1 -39 vhcurveto
            -76 callsubr
            79 77 48 71 49 vhcurveto
            return
          </CharString>
          <CharString index="89">
            53 -13 callgsubr
            return
          </CharString>
          <CharString index="90">
            -1 -38 -39 0 -38 hhcurveto
            return
          </CharString>
          <CharString index="91">
            -3 -28 -27 -2 -28 hhcurveto
            return
          </CharString>
          <CharString index="92">
            -62 31 56 -48 92 hhcurveto
            -94 callsubr
            -80 -152 rmoveto
            return
          </CharString>
          <CharString index="93">
            74 -46 14 callgsubr
            return
          </CharString>
          <CharString index="94">
            1 161 4 162 8 162 return
          </CharString>
          <CharString index="95">
            155 659 -7 callgsubr
            -101 -153 rmoveto
            7 -494 rlineto
            67 hlineto
            8 488 rlineto
            return
          </CharString>
          <CharString index="96">
            vvcurveto
            76 1 rlineto
            64 1 65 2 65 vhcurveto
            190 hlineto
            -4 -196 rlineto
            76 hlineto
            return
          </CharString>
          <CharString index="97">
            -21 124 -20 return
          </CharString>
          <CharString index="98">
            0 1 38 93 vvcurveto
            81 -1 123 -3 176 vhcurveto
            return
          </CharString>
          <CharString index="99">
            rmoveto
            80 -61 17 -39 -49 -52 -26 -72 -13 1 -4 5 -14 vhcurveto
            62 10 rlineto
            -4 17 -1 1 8 vvcurveto
            31 14 19 23 21 18 -22 -27 1 vhcurveto
            return
          </CharString>
          <CharString index="100">
            61 39 -54 -66 -7 0 -6 -1 -6 hvcurveto
            return
          </CharString>
          <CharString index="101">
            -86 -94 -41 -151 hvcurveto
            -28 callsubr
            return
          </CharString>
          <CharString index="102">
            -73 -76 -77 -70 callgsubr
            67 -69 vhcurveto
            -10 -1 -12 -1 -19 vhcurveto
            221 341 rmoveto
            return
          </CharString>
          <CharString index="103">
            rmoveto
            78 vlineto
            -134 94 -32 -70 131 -70 -119 -44 7 -88 rlineto
            return
          </CharString>
          <CharString index="104">
            269 -173 59 -120 -35 -46 -4 -17 -26 return
          </CharString>
          <CharString index="105">
            67 -42 30 -63 -63 -30 -40 -46 -17 2 -22 9 -24 vhcurveto
            56 10 rlineto
            -5 21 -3 16 9 vvcurveto
            35 17 20 20 20 21 -11 -40 return
          </CharString>
          <CharString index="106">
            -76 67 696 vlineto
            -74 -439 -20 callsubr
            return
          </CharString>
          <CharString index="107">
            -20 6 callsubr
            hintmask 11001100
            return
          </CharString>
          <CharString index="108">
            -82 1 -135 5 -206 vhcurveto
            63 2 rlineto
            return
          </CharString>
          <CharString index="109">
            47 -47 113 2 -20 hstem
            return
          </CharString>
          <CharString index="110">
            -64 -6 rlineto
            7 -13 5 -13 -15 vvcurveto
            -16 -5 -10 -15 vhcurveto
            return
          </CharString>
          <CharString index="111">
            1 -167 rlineto
            -110 -62 110 hlineto
            return
          </CharString>
          <CharString index="112">
            rmoveto
            110 -34 50 -77 -73 -38 return
          </CharString>
          <CharString index="113">
            hstemhm
            12 callsubr
            return
          </CharString>
          <CharString index="114">
            -21 133 68 return
          </CharString>
          <CharString index="115">
            79 43 -35 -21 231 43 16 44 174 43 33 -20 hstemhm
            25 63 97 62 66 63 97 62 return
          </CharString>
          <CharString index="116">
            73 -21 60 198 55 353 70 return
          </CharString>
          <CharString index="117">
            -32 26 -25 31 32 26 25 32 vhcurveto
            return
          </CharString>
          <CharString index="118">
            rmoveto
            73 -318 -73 vlineto
            endchar
          </CharString>
          <CharString index="119">
            31 91 229 91 return
          </CharString>
          <CharString index="120">
            -21 441 60 -60 78 return
          </CharString>
          <CharString index="121">
            163 -163 return
          </CharString>
          <CharString index="122">
            rmoveto
            -78 callgsubr
            endchar
          </CharString>
          <CharString index="123">
            39 19 13 callsubr
            return
          </CharString>
          <CharString index="124">
            hstemhm
            26 99 200 89 -66 98 return
          </CharString>
          <CharString index="125">
            -21 154 -20 hstem
            return
          </CharString>
          <CharString index="126">
            -68 callgsubr
            endchar
          </CharString>
          <CharString index="127">
            rmoveto
            23 -19 18 -22 -22 -19 -18 -23 -22 19 -19 22 22 19 19 22 vhcurveto
            return
          </CharString>
          <CharString index="128">
            38 callgsubr
            32 -26 20 -25 hvcurveto
            return
          </CharString>
          <CharString index="129">
            74 -14 60 606 70 return
          </CharString>
          <CharString index="130">
            -20 hstemhm
            28 70 -44 70 return
          </CharString>
          <CharString index="131">
            -2 219 -27 return
          </CharString>
          <CharString index="132">
            789 30 callsubr
            -95 -54 -43 -55 -31 vhcurveto
            return
          </CharString>
          <CharString index="133">
            22 callgsubr
            76 return
          </CharString>
          <CharString index="134">
            31 callsubr
            218 69 return
          </CharString>
          <CharString index="135">
            rmoveto
            24 callsubr
            return
          </CharString>
          <CharString index="136">
            389 -13 70 -40 -21 249 71 -29 65 123 76 -7 -20 return
          </CharString>
          <CharString index="137">
            40 callgsubr
            -24 callgsubr
            return
          </CharString>
          <CharString index="138">
            -20 34 callgsubr
            return
          </CharString>
          <CharString index="139">
            58 -31 -52 33 -83 hhcurveto
            -90 -76 -60 -96 -28 hvcurveto
            82 -26 rlineto
            return
          </CharString>
          <CharString index="140">
            -52 -86 49 171 140 87 60 59 57 81 -50 -134 return
          </CharString>
          <CharString index="141">
            482 284 rmoveto
            155 -3 -81 96 -114 hhcurveto
            0 return
          </CharString>
          <CharString index="142">
            47 -10 53 646 57 return
          </CharString>
          <CharString index="143">
            10 -2 68 426 75 return
          </CharString>
          <CharString index="144">
            44 callsubr
            hstemhm
            return
          </CharString>
          <CharString index="145">
            40 154 vvcurveto
            return
          </CharString>
          <CharString index="146">
            hstemhm
            26 75 return
          </CharString>
          <CharString index="147">
            37 135 rlineto
            -63 hlineto
            -37 -179 rlineto
            196 hlineto
            return
          </CharString>
          <CharString index="148">
            42 callsubr
            19 91 vstem
            120 return
          </CharString>
          <CharString index="149">
            18 callsubr
            29 91 return
          </CharString>
          <CharString index="150">
            147 26 -21 709 -20 return
          </CharString>
          <CharString index="151">
            -21 175 -20 return
          </CharString>
          <CharString index="152">
            95 55 96 return
          </CharString>
          <CharString index="153">
            -20 21 -20 return
          </CharString>
          <CharString index="154">
            -21 272 -20 hstem
            return
          </CharString>
          <CharString index="155">
            17 83 257 75 return
          </CharString>
          <CharString index="156">
            0 1 7 return
          </CharString>
          <CharString index="157">
            91 -155 -21 152 75 420 64 return
          </CharString>
          <CharString index="158">
            -21 625 69 1 -20 return
          </CharString>
          <CharString index="159">
            40 27 -21 431 77 return
          </CharString>
          <CharString index="160">
            -20 hstemhm
            47 85 -85 98 return
          </CharString>
          <CharString index="161">
            47 68 -20 hstemhm
            return
          </CharString>
          <CharString index="162">
            -20 hstemhm
            26 76 return
          </CharString>
          <CharString index="163">
            -21 704 -20 hstemhm
            39 89 -69 69 return
          </CharString>
          <CharString index="164">
            -20 hstemhm
            54 return
          </CharString>
          <CharString index="165">
            23 -21 479 62 -62 226 return
          </CharString>
          <CharString index="166">
            2 -35 rlineto
            180 41 -103 hlineto
            return
          </CharString>
          <CharString index="167">
            747 rmoveto
            -82 -812 64 hlineto
            return
          </CharString>
          <CharString index="168">
            57 70 226 67 return
          </CharString>
          <CharString index="169">
            18 -5 18 -5 17 return
          </CharString>
          <CharString index="170">
            227 -81 81 return
          </CharString>
        <CharString name=".notdef">
          -186 endchar
        </CharString>
        <CharString name="A">
          -26 callgsubr
          hstem
          -107 callsubr
          endchar
        </CharString>
        <CharString name="AE">
          29 callgsubr
          hstemhm
          324 84 hintmask 01110110
          -11 callgsubr
          hintmask 10111010
          9 callgsubr
          hintmask 10110110
          -5 callgsubr
          endchar
        </CharString>
        <CharString name="AEacute">
          29 callgsubr
          86 37 callsubr
          324 84 hintmask 0111010010000000
          -11 callgsubr
          hintmask 1011100010000000
          9 callgsubr
          hintmask 1011010010000000
          -5 callgsubr
          hintmask 0000001100000000
          189 243 -92 callsubr
        </CharString>
        <CharString name="Aacute">
          -26 callgsubr
          65 -21 175 -80 callgsubr
          167 224 -92 callsubr
        </CharString>
        <CharString name="Abreve">
          -26 callgsubr
          55 2 callsubr
          119 49 callgsubr
          vstem
          -107 callsubr
          99 236 -97 callgsubr
        </CharString>
        <CharString name="Acircumflex">
          -26 callgsubr
          69 -21 172 -80 callgsubr
          91 148 -104 callgsubr
        </CharString>
        <CharString name="Adieresis">
          -26 callgsubr
          58 97 hstemhm
          99 45 callsubr
          -101 callgsubr
          hintmask 00011100
          126 176 -105 callsubr
        </CharString>
        <CharString name="Agrave">
          -26 callgsubr
          67 -21 167 -80 callgsubr
          9 149 -72 callgsubr
        </CharString>
        <CharString name="Amacron">
          -26 callgsubr
          59 66 hstemhm
          -101 callgsubr
          hintmask 00010000
          102 128 -28 callgsubr
        </CharString>
        <CharString name="Aogonek">
          22 -108 -21 143 7 callsubr
          504 -20 hstem
          335 45 vstem
          459 -105 -47 callsubr
          18 16 23 13 17 hvcurveto
          28 hlineto
          -100 callgsubr
          35 hlineto
          -20 -21 -19 -27 -26 vvcurveto
          -40 callgsubr
          -240 714 -92 callgsubr
          endchar
        </CharString>
        <CharString name="Aring">
          22 14 7 callsubr
          463 49 -8 -20 104 50 hstemhm
          132 51 76 52 hintmask 11010000
          -107 callsubr
          hintmask 00101110
          -36 135 -80 callsubr
        </CharString>
        <CharString name="Atilde">
          -26 callgsubr
          48 -16 callgsubr
          106 24 callgsubr
          -101 callgsubr
          hintmask 00010101
          110 243 -67 callsubr
          hintmask 00011010
          -98 callgsubr
          hintmask 00010110
          -29 callsubr
        </CharString>
        <CharString name="B">
          36 -11 54 613 60 hstem
          54 92 179 80 vstem
          431 480 rmoveto
          174 -99 62 -119 -33 -73 -3 -23 -53 vhcurveto
          -680 vlineto
          -20 84 55 -1 9 hhcurveto
          56 147 31 120 9 -4 108 -132 16 hvcurveto
          156 72 6 135 0 vvcurveto
          -95 17 rmoveto
          0 -2 -193 -188 -42 vhcurveto
          389 vlineto
          4 18 16 1 15 hhcurveto
          142 -1 -159 0 hvcurveto
          -132 -267 rmoveto
          121 0 -82 0 -81 -57 -24 -61 -21 -21 3 4 -19 hvcurveto
          175 vlineto
          3 21 19 2 18 hhcurveto
          endchar
        </CharString>
        <CharString name="C">
          22 callsubr
          hstem
          31 99 259 84 vstem
          -89 callgsubr
          endchar
        </CharString>
        <CharString name="Cacute">
          22 callsubr
          40 -21 175 -69 callsubr
          68 381 -92 callsubr
        </CharString>
        <CharString name="Ccaron">
          22 callsubr
          47 -21 169 -69 callsubr
          -70 444 -93 callgsubr
        </CharString>
        <CharString name="Ccedilla">
          74 -162 208 606 70 hstem
          31 99 140 40 79 84 vstem
          252 -162 21 callsubr
          14 37 18 1 134 12 27 183 rlinecurve
          -63 callgsubr
          84 5 rlineto
          -33 callsubr
          -223 76 -124 136 -13 vhcurveto
          -30 -63 -45 callgsubr
        </CharString>
        <CharString name="Ccircumflex">
          22 callsubr
          40 -21 172 -69 callsubr
          -11 301 -104 callgsubr
        </CharString>
        <CharString name="Cdotaccent">
          22 callsubr
          30 97 hstemhm
          31 99 105 97 57 84 hintmask 11010100
          -89 callgsubr
          hintmask 00101000
          -57 330 -72 callsubr
        </CharString>
        <CharString name="D">
          65 7 -21 677 60 hstem
          54 93 215 99 vstem
          -43 callsubr
          endchar
        </CharString>
        <CharString name="Dcaron">
          65 7 -21 677 60 50 -21 169 57 callsubr
          93 215 99 hintmask 11001100
          -43 callsubr
          hintmask 00110000
          -76 550 -93 callgsubr
        </CharString>
        <CharString name="Dcroat">
          -54 callgsubr
        </CharString>
        <CharString name="Delta">
          21 -6 85 625 -20 hstem
          84 79 rmoveto
          24 -35 115 576 -19 -5 136 -571 18 36 rlineto
          -338 -86 rmoveto
          400 hlineto
          -166 710 rlineto
          -91 hlineto
          endchar
        </CharString>
        <CharString name="E">
          -35 callsubr
          hstem
          54 86 vstem
          -77 callgsubr
          endchar
        </CharString>
        <CharString name="Eacute">
          -35 callsubr
          48 -21 175 -54 callsubr
          -16 138 -92 callsubr
        </CharString>
        <CharString name="Ebreve">
          -35 callsubr
          33 47 68 63 callgsubr
          -11 49 callgsubr
          hintmask 11111101
          -77 callgsubr
          -80 145 -68 callsubr
          vhcurveto
          hintmask 11111011
          -50 callgsubr
          hvcurveto
          -73 callgsubr
        </CharString>
        <CharString name="Ecaron">
          -35 callsubr
          53 -21 169 -54 callsubr
          -146 199 -93 callgsubr
        </CharString>
        <CharString name="Ecircumflex">
          -35 callsubr
          51 -21 172 -54 callsubr
          -77 61 -104 callgsubr
        </CharString>
        <CharString name="Edieresis">
          -35 callsubr
          27 97 hstemhm
          54 86 -32 45 callsubr
          hintmask 11101000
          -77 callgsubr
          hintmask 00010110
          -54 76 -105 callsubr
        </CharString>
        <CharString name="Edotaccent">
          -35 callsubr
          30 97 hstemhm
          54 86 55 97 hintmask 11101000
          -77 callgsubr
          hintmask 00010100
          -116 79 -72 callsubr
        </CharString>
        <CharString name="Egrave">
          -35 callsubr
          48 -21 167 -54 callsubr
          -167 61 -72 callgsubr
        </CharString>
        <CharString name="Emacron">
          -35 callsubr
          43 66 hstemhm
          54 86 hintmask 11101000
          -77 callgsubr
          hintmask 00010000
          -77 43 -28 callgsubr
        </CharString>
        <CharString name="Eng">
          64 -257 60 895 -20 hstemhm
          14 105 -72 85 -85 98 174 84 -64 64 hintmask 11010010
          -87 callsubr
          hintmask 11001100
          -13 callsubr
          174 -463 rcurveline
          -172 -11 -40 -48 -64 hhcurveto
          hintmask 11100100
          -60 -25 73 76 hvcurveto
          -105 -4 rlineto
          -105 60 -100 124 134 62 103 153 9 vhcurveto
          14 234 8 233 26 231 rrcurveto
          endchar
        </CharString>
        <CharString name="Eogonek">
          11 -117 198 -77 -27 callsubr
          hstemhm
          54 86 138 45 hintmask 01111100
          402 -93 -47 callsubr
          18 15 23 14 16 hvcurveto
          45 -73 callsubr
          -354 -691 262 hlineto
          -19 -21 -19 -26 -26 vvcurveto
          hintmask 10111100
          15 callgsubr
        </CharString>
        <CharString name="Eth">
          -54 callgsubr
        </CharString>
        <CharString name="Euro">
          5 -14 51 129 56 17 56 148 58 hstem
          74 77 169 68 vstem
          388 323 rmoveto
          15 vlineto
          163 -133 0 0 -122 -59 -89 -173 -165 61 -88 107 vhcurveto
          0 111 0 21 144 vhcurveto
          -64 4 rlineto
          -14 -97 -54 8 callgsubr
          -54 -37 70 135 136 40 65 59 1 69 0 -124 hvcurveto
          -80 -76 rmoveto
          8 52 rlineto
          -206 hlineto
          -10 -60 rlineto
          196 -69 rmoveto
          10 56 rlineto
          -207 hlineto
          -10 -56 rlineto
          endchar
        </CharString>
        <CharString name="F">
          -3 24 -21 255 72 297 67 hstem
          54 82 vstem
          54 694 rmoveto
          -691 78 255 216 72 -212 297 263 67 vlineto
          endchar
        </CharString>
        <CharString name="G">
          9 callsubr
          hstemhm
          32 97 99 63 callsubr
          hintmask 11111000
          -78 callsubr
          hintmask 11110100
          -61 callgsubr
          endchar
        </CharString>
        <CharString name="Gbreve">
          9 callsubr
          26 54 callsubr
          32 97 49 60 -10 227 -138 60 -3 81 hintmask 1111110100000000
          -78 callsubr
          hintmask 1111111001000000
          -61 callgsubr
          hintmask 1111111010000000
          -4 389 -97 callgsubr
        </CharString>
        <CharString name="Gcircumflex">
          9 callsubr
          40 48 callgsubr
          32 97 99 63 callsubr
          hintmask 11100110
          -78 callsubr
          hintmask 11100101
          -61 callgsubr
          hintmask 00011000
          -16 301 -104 callgsubr
        </CharString>
        <CharString name="Gcommaaccent">
          73 -154 -10 callsubr
          50 60 198 55 353 70 hstemhm
          32 97 79 73 -53 63 callsubr
          hintmask 0011110100000000
          -78 callsubr
          hintmask 0011110010000000
          -61 callgsubr
          hintmask 1100001000000000
          -100 -552 -102 callsubr
        </CharString>
        <CharString name="Gdotaccent">
          9 callsubr
          29 97 hstemhm
          32 97 95 97 -93 63 callsubr
          hintmask 11101010
          -78 callsubr
          hintmask 11101001
          -61 callgsubr
          hintmask 00010100
          -60 329 -72 callsubr
        </CharString>
        <CharString name="H">
          52 callgsubr
          427 -20 hstemhm
          56 81 -81 99 168 74 hintmask 11110100
          -33 callgsubr
          hintmask 11101100
          50 callgsubr
          endchar
        </CharString>
        <CharString name="Hbar">
          52 callgsubr
          87 62 278 -20 hstemhm
          52 90 -90 103 175 67 -67 85 hintmask 11111010
          463 367 rmoveto
          62 -44 vlineto
          6 92 7 93 8 92 -110 1 rcurveline
          -93 0 -93 -1 -92 vhcurveto
          -187 hlineto
          hintmask 11110110
          3 89 5 90 5 91 -105 2 rcurveline
          4 -272 rlineto
          -40 -62 40 hlineto
          1 -120 1 -119 -119 -11 callsubr
          hintmask 11111001
          4 119 6 120 8 120 rrcurveto
          -88 -84 rmoveto
          -190 -5 2 89 rlineto
          189 hlineto
          -1 -28 0 -28 -28 vvcurveto
          endchar
        </CharString>
        <CharString name="Hcircumflex">
          52 callgsubr
          427 -20 59 48 callgsubr
          56 81 -81 99 168 74 hintmask 11100101
          -33 callgsubr
          hintmask 11100011
          50 callgsubr
          hintmask 00011000
          181 57 -104 callgsubr
        </CharString>
        <CharString name="I">
          -148 8 74 629 -20 21 -22 callgsubr
          hintmask 10100001
          19 callgsubr
          hintmask 10100100
          -16 callsubr
          hintmask 10100010
          -49 callgsubr
          hintmask 10101000
          -45 callsubr
          hintmask 11010000
          -17 callsubr
          hintmask 10100001
          -95 callsubr
          endchar
        </CharString>
        <CharString name="IJ">
          311 -13 60 -39 74 625 -20 24 -20 21 -22 callgsubr
          35 105 203 107 hintmask 0100100001000000
          19 callgsubr
          hintmask 0100100100000000
          -16 callsubr
          hintmask 0100100010000000
          -49 callgsubr
          hintmask 0100101000000000
          -45 callsubr
          hintmask 0101010000000000
          -17 callsubr
          hintmask 0100100001000000
          -95 callsubr
          hintmask 1010000000110000
          446 299 -58 callgsubr
          endchar
        </CharString>
        <CharString name="Iacute">
          -34 callsubr
          67 -21 175 -88 callsubr
          75 841 -92 callsubr
        </CharString>
        <CharString name="Ibreve">
          -34 callsubr
          50 54 callsubr
          25 14 callsubr
          229 -217 60 -6 63 -63 97 -97 146 -61 60 hintmask 1011100000100000
          19 callgsubr
          hintmask 1011100010010000
          -16 callsubr
          hintmask 1011100001000000
          -49 callgsubr
          hintmask 1011101000000000
          -45 callsubr
          hintmask 1101110000000000
          -17 callsubr
          hintmask 1011100000100000
          -95 callsubr
          hintmask 1011100100010000
          -1 846 -97 callgsubr
        </CharString>
        <CharString name="Icircumflex">
          -34 callsubr
          64 -21 172 -88 callsubr
          2 758 -104 callgsubr
        </CharString>
        <CharString name="Idieresis">
          -34 callsubr
          54 97 hstemhm
          16 95 -86 -56 callsubr
          -71 96 -91 callgsubr
          hintmask 0001100000100000
          25 787 -105 callsubr
        </CharString>
        <CharString name="Idotaccent">
          -34 callsubr
          49 97 hstemhm
          25 -56 callsubr
          -144 97 -53 callsubr
          hintmask 0001000001000000
          -47 782 -72 callsubr
        </CharString>
        <CharString name="Igrave">
          -34 callsubr
          70 -21 167 -88 callsubr
          -76 767 -72 callgsubr
        </CharString>
        <CharString name="Imacron">
          -34 callsubr
          54 66 hstemhm
          25 -56 callsubr
          -53 callsubr
          hintmask 0001000000000000
          -1 738 -28 callgsubr
        </CharString>
        <CharString name="Iogonek">
          -148 -104 186 -74 74 629 46 callsubr
          hstemhm
          25 14 callsubr
          212 -212 229 -163 63 -63 97 hintmask 0101010000000000
          192 -80 -47 callsubr
          15 10 18 12 15 hvcurveto
          102 79 hlineto
          hintmask 1001000100000000
          -16 callsubr
          hintmask 1001000010000000
          -49 callgsubr
          hintmask 1001001000000000
          -45 callsubr
          hintmask 1010100000000000
          -17 callsubr
          hintmask 0101000010000000
          -95 callgsubr
          75 hlineto
          -16 -19 -14 -23 -22 vvcurveto
          hintmask 1001100000000000
          15 callgsubr
        </CharString>
        <CharString name="Itilde">
          -34 callsubr
          49 -16 callgsubr
          18 232 -225 -56 callsubr
          -42 55 hintmask 1010000000010000
          19 callgsubr
          hintmask 1010000001000000
          -16 callsubr
          hintmask 1010000000100000
          -49 callgsubr
          54 callgsubr
          -45 callsubr
          hintmask 1100000100000000
          -17 callsubr
          hintmask 1010000000010000
          -95 callsubr
          hintmask 0001010000001000
          4 859 -67 callsubr
          hintmask 0001101000000000
          -98 callgsubr
          hintmask 0001011000000000
          -29 callsubr
        </CharString>
        <CharString name="J">
          52 -13 7 callgsubr
          hstem
          13 105 203 107 vstem
          424 307 -58 callgsubr
          endchar
        </CharString>
        <CharString name="Jcircumflex">
          52 -13 7 callgsubr
          69 48 callgsubr
          13 105 203 107 hintmask 11001100
          424 307 -58 callgsubr
          hintmask 00110000
          29 459 -104 callgsubr
        </CharString>
        <CharString name="K">
          32 12 57 callgsubr
          hintmask 10110000
          -8 callgsubr
          hintmask 01110000
          -19 callgsubr
          endchar
        </CharString>
        <CharString name="Kcommaaccent">
          32 -129 -10 callsubr
          58 57 callgsubr
          35 73 hintmask 00101100
          -8 callgsubr
          hintmask 00011100
          -19 callgsubr
          hintmask 11000010
          78 -760 -102 callsubr
        </CharString>
        <CharString name="L">
          -44 0 81 -66 -21 711 27 callgsubr
          hintmask 10110000
          -36 callgsubr
          hintmask 01101000
          -64 callgsubr
          endchar
        </CharString>
        <CharString name="Lacute">
          -44 0 81 -66 -21 711 -20 77 -21 175 27 callgsubr
          hintmask 10100100
          -36 callgsubr
          hintmask 01100010
          -64 callgsubr
          hintmask 10100100
          hintmask 00011000
          -88 847 -92 callsubr
        </CharString>
        <CharString name="Lcaron">
          -44 0 81 -66 -21 611 -21 121 -20 23 27 callgsubr
          46 73 hintmask 10010100
          -36 callgsubr
          hintmask 01010010
          -64 callgsubr
          hintmask 10010100
          hintmask 00101001
          -79 666 -102 callsubr
        </CharString>
        <CharString name="Lcommaaccent">
          -44 -133 -10 callsubr
          50 81 -66 -21 711 27 callgsubr
          -15 73 hintmask 00101100
          -36 callgsubr
          hintmask 00011010
          -64 callgsubr
          hintmask 00101100
          hintmask 11000001
          -140 -72 -102 callsubr
        </CharString>
        <CharString name="Ldot">
          53 0 81 -66 -21 307 85 319 27 callgsubr
          180 86 hintmask 10011000
          -36 callgsubr
          hintmask 01010100
          -64 callgsubr
          hintmask 10011000
          hintmask 00100010
          68 339 rmoveto
          19 callsubr
        </CharString>
        <CharString name="Lslash">
          -37 0 81 -66 -21 711 -20 hstemhm
          55 99 -99 117 hintmask 10110000
          221 319 rmoveto
          -18 58 -49 -15 rlineto
          hintmask 01101000
          5 106 5 110 8 127 -117 -5 rcurveline
          4 -123 2 -122 1 -122 -76 -24 rcurveline
          22 -70 55 20 rlineto
          -30 vlineto
          -18 callgsubr
          hintmask 10110000
          76 vlineto
          -27 callgsubr
          2 73 2 70 3 70 rrcurveto
          endchar
        </CharString>
        <CharString name="M">
          136 28 -21 704 -20 hstem
          499 711 rmoveto
          -136 hlineto
          -71 -501 -65 499 rlineto
          -137 hlineto
          -63 -692 79 -5 62 517 71 -474 rlineto
          93 hlineto
          81 485 44 -533 rlineto
          42 hlineto
          endchar
        </CharString>
        <CharString name="N">
          64 20 -21 699 31 callgsubr
          hintmask 11101000
          -87 callsubr
          hintmask 11011000
          -56 callgsubr
          endchar
        </CharString>
        <CharString name="Nacute">
          51 callgsubr
          43 -21 175 -51 callsubr
          -48 114 -92 callsubr
        </CharString>
        <CharString name="Ncaron">
          51 callgsubr
          61 -21 169 -51 callsubr
          -166 188 -93 callgsubr
        </CharString>
        <CharString name="Ncommaaccent">
          64 -127 -10 callsubr
          64 -21 699 53 callsubr
          58 73 63 67 hintmask 00111001
          -87 callsubr
          hintmask 00110101
          -56 callgsubr
          hintmask 11000010
          -175 -758 -102 callsubr
        </CharString>
        <CharString name="Ntilde">
          51 callgsubr
          38 61 3 60 2 53 callsubr
          -12 24 callgsubr
          -26 67 hintmask 1100010001000000
          -87 callsubr
          hintmask 1100001001000000
          -56 callgsubr
          hintmask 0010100010000000
          -95 145 -67 callsubr
          hintmask 0011000100000000
          -98 callgsubr
          hintmask 0010100100000000
          -29 callsubr
        </CharString>
        <CharString name="O">
          -17 callgsubr
          hstem
          12 callsubr
          vstem
          -103 callgsubr
          endchar
        </CharString>
        <CharString name="OE">
          317 -29 63 -30 30 -30 -27 callsubr
          -31 31 -31 64 hstemhm
          31 91 229 95 hintmask 1001100110000000
          360 695 rmoveto
          -16 vlineto
          hintmask 1001001110000000
          31 -31 -41 18 -51 hhcurveto
          -63 callsubr
          52 45 32 51 36 hvcurveto
          hintmask 0101100110000000
          -50 343 vlineto
          hintmask 0011100110000000
          -73 callsubr
          vlineto
          -363 -325 rmoveto
          hintmask 1001010110000000
          2 callgsubr
        </CharString>
        <CharString name="Oacute">
          -17 callgsubr
          46 -21 175 -86 callsubr
          65 494 -92 callsubr
        </CharString>
        <CharString name="Obreve">
          -17 callgsubr
          33 2 callsubr
          31 91 14 49 callgsubr
          16 91 vstem
          -103 callgsubr
          -16 503 -97 callgsubr
        </CharString>
        <CharString name="Ocircumflex">
          -17 callgsubr
          47 -21 172 -86 callsubr
          -14 415 -104 callgsubr
        </CharString>
        <CharString name="Odieresis">
          -17 callgsubr
          25 97 hstemhm
          31 91 -9 45 callsubr
          -8 91 hintmask 11010010
          -103 callgsubr
          hintmask 00101100
          8 432 -105 callsubr
        </CharString>
        <CharString name="Ograve">
          -17 callgsubr
          45 -21 167 -86 callsubr
          -113 416 -72 callgsubr
        </CharString>
        <CharString name="Ohungarumlaut">
          -17 callgsubr
          46 -21 201 -86 callsubr
          85 494 -52 callgsubr
        </CharString>
        <CharString name="Omacron">
          -17 callgsubr
          33 66 6 callsubr
          hintmask 11011000
          -103 callgsubr
          hintmask 00100000
          -13 391 -28 callgsubr
        </CharString>
        <CharString name="Omega">
          57 26 -21 649 60 hstem
          35 92 -73 174 -55 55 113 92 vstem
          173 133 rmoveto
          -96 vlineto
          0 26 35 0 vhcurveto
          -146 10 2 -75 rlineto
          0 177 2 0 vhcurveto
          -7 162 rlineto
          -85 30 -13 169 46 vvcurveto
          158 33 80 59 60 62 -68 -174 -143 -30 -63 -40 -37 vhcurveto
          -2 -2 -1 -158 0 vvcurveto
          0 165 -4 0 vhcurveto
          0 0 77 0 vhcurveto
          0 -122 -1 0 vhcurveto
          0 18 -28 0 vhcurveto
          0 0 83 0 vhcurveto
          0 104 89 150 vvcurveto
          110 -3 229 -217 vhcurveto
          -177 -12 -1 -196 -94 vvcurveto
          -94 30 -151 108 -34 vhcurveto
          endchar
        </CharString>
        <CharString name="Oslash">
          -17 callgsubr
          hstem
          12 callsubr
          vstem
          -59 callsubr
          endchar
        </CharString>
        <CharString name="Oslashacute">
          -17 callgsubr
          52 -21 175 0 callsubr
          -59 callsubr
          hintmask 00110000
          278 500 -92 callsubr
        </CharString>
        <CharString name="Otilde">
          -17 callgsubr
          24 -16 callgsubr
          31 91 -2 24 callgsubr
          -1 91 hintmask 1100010010000000
          -103 callgsubr
          hintmask 0010100100000000
          -8 508 -67 callgsubr
        </CharString>
        <CharString name="P">
          54 19 -21 230 57 378 63 hstem
          55 66 vstem
          456 482 rmoveto
          -74 callgsubr
          129 166 90 164 8 hvcurveto
          -302 175 -64 callsubr
          endchar
        </CharString>
        <CharString name="Q">
          56 -189 -21 181 63 -41 -21 692 64 6 callsubr
          hintmask 11011100
          403 -156 rmoveto
          -54 39 -38 47 -21 58 rrcurveto
          93 50 59 162 174 vvcurveto
          -77 callsubr
          vhcurveto
          hintmask 10111100
          4 4 1 4 hhcurveto
          12 -69 32 -61 51 -52 rrcurveto
          17 580 rmoveto
          hintmask 11011100
          2 callgsubr
        </CharString>
        <CharString name="R">
          35 callgsubr
          hstemhm
          55 66 hintmask 01110000
          -81 callgsubr
          hintmask 10110000
          -62 callsubr
          endchar
        </CharString>
        <CharString name="Racute">
          35 callgsubr
          52 -21 175 -62 callgsubr
          234 211 -92 callsubr
        </CharString>
        <CharString name="Rcaron">
          35 callgsubr
          51 -21 169 -62 callgsubr
          113 266 -93 callgsubr
        </CharString>
        <CharString name="Rcommaaccent">
          55 -134 -10 callsubr
          66 -21 25 -21 665 63 hstemhm
          55 66 36 73 hintmask 00011100
          -81 callgsubr
          hintmask 00101100
          -62 callsubr
          hintmask 11000010
          76 -725 -102 callsubr
        </CharString>
        <CharString name="S">
          35 callsubr
          17 callsubr
          hintmask 11101000
          446 562 rmoveto
          -42 callgsubr
          hintmask 11110000
          -71 callsubr
          hintmask 11101000
          -51 callgsubr
          endchar
        </CharString>
        <CharString name="Sacute">
          35 callsubr
          44 -21 175 -84 callsubr
          -56 318 -92 callsubr
        </CharString>
        <CharString name="Scaron">
          35 callsubr
          50 -21 169 -84 callsubr
          -165 380 -93 callgsubr
        </CharString>
        <CharString name="Scedilla">
          47 -143 186 -53 53 646 57 hstemhm
          26 96 105 40 58 89 -66 98 hintmask 10111100
          209 -143 21 callsubr
          hintmask 01111100
          8 22 rlineto
          14 hlineto
          47 callgsubr
          hvcurveto
          -22 callsubr
          hintmask 10111010
          -51 callgsubr
          -42 callgsubr
          hintmask 10111100
          -48 callsubr
          -102 61 -76 100 -17 vhcurveto
          -24 -50 -45 callgsubr
        </CharString>
        <CharString name="Scircumflex">
          35 callsubr
          40 -21 172 -84 callsubr
          -114 234 -104 callgsubr
        </CharString>
        <CharString name="T">
          -54 26 51 callsubr
          hstemhm
          131 65 hintmask 10110000
          11 700 rmoveto
          hintmask 11010000
          4 callgsubr
          endchar
        </CharString>
        <CharString name="Tbar">
          -54 26 -21 317 56 252 69 1 -20 hstemhm
          131 65 hintmask 11101000
          305 322 rmoveto
          56 -109 252 153 vlineto
          7 68 rlineto
          hintmask 11011000
          -345 2 rlineto
          hintmask 11101000
          -70 120 -252 -110 -56 110 -317 65 317 vlineto
          endchar
        </CharString>
        <CharString name="Tcaron">
          -54 26 51 callsubr
          73 -21 169 -20 hstemhm
          131 65 hintmask 10100100
          11 700 rmoveto
          hintmask 11000100
          4 callgsubr
          hintmask 10100100
          hintmask 00011000
          -144 201 -93 callgsubr
        </CharString>
        <CharString name="Tcommaaccent">
          -54 -139 -10 callsubr
          82 51 callsubr
          hstemhm
          123 73 -65 65 hintmask 00101010
          11 700 rmoveto
          hintmask 00110010
          4 callgsubr
          hintmask 00101010
          hintmask 11000100
          -160 -771 -102 callsubr
        </CharString>
        <CharString name="Thorn">
          58 19 -21 120 57 378 63 110 -20 hstemhm
          56 72 -72 110 hintmask 11110100
          154 118 rmoveto
          138 165 102 169 167 -115 60 -114 -30 -19 -2 -3 -13 hvcurveto
          112 vlineto
          -112 3 rlineto
          1 -51 1 -63 -67 vvcurveto
          -245 -7 -302 0 vhcurveto
          73 hlineto
          1 44 1 39 2 38 rrcurveto
          -1 9 9 0 10 hhcurveto
          1 429 -53 callgsubr
          hintmask 11111000
          -5 hlineto
          6 122 9 103 12 147 rrcurveto
          endchar
        </CharString>
        <CharString name="U">
          -14 callgsubr
          hstem
          37 102 194 98 vstem
          -106 callgsubr
          endchar
        </CharString>
        <CharString name="Uacute">
          -14 callgsubr
          47 -21 175 -90 callgsubr
          -10 517 -92 callsubr
        </CharString>
        <CharString name="Ubreve">
          -14 callgsubr
          39 54 callsubr
          37 102 13 49 callgsubr
          -18 98 hintmask 11111101
          -106 callgsubr
          hintmask 11111110
          -80 531 -97 callgsubr
        </CharString>
        <CharString name="Ucircumflex">
          -14 callgsubr
          55 -21 172 -90 callgsubr
          -85 445 -104 callgsubr
        </CharString>
        <CharString name="Udieresis">
          -14 callgsubr
          45 97 hstemhm
          37 102 -10 45 callsubr
          -42 98 hintmask 11010010
          -106 callgsubr
          hintmask 00101100
          -56 474 -105 callsubr
        </CharString>
        <CharString name="Ugrave">
          -14 callgsubr
          56 -21 167 -90 callgsubr
          -168 449 -72 callgsubr
        </CharString>
        <CharString name="Uhungarumlaut">
          -14 callgsubr
          56 -21 201 -90 callgsubr
          21 526 -52 callgsubr
        </CharString>
        <CharString name="Umacron">
          -14 callgsubr
          50 66 13 callgsubr
          hintmask 11011000
          -106 callgsubr
          hintmask 00100000
          -81 430 -28 callgsubr
        </CharString>
        <CharString name="Uogonek">
          60 -117 171 -60 60 660 28 callgsubr
          hintmask 01111000
          274 -93 -47 callsubr
          15 10 17 11 15 hvcurveto
          137 1 61 99 17 220 rrcurveto
          -104 callsubr
          -195 31 -121 114 -18 vhcurveto
          -17 -20 -15 -23 -23 vvcurveto
          hintmask 10111000
          15 callgsubr
        </CharString>
        <CharString name="Uring">
          -14 callgsubr
          29 49 76 50 hstemhm
          37 102 28 51 76 52 -13 98 hintmask 11001001
          -106 callgsubr
          hintmask 00110110
          -213 496 -80 callsubr
        </CharString>
        <CharString name="Utilde">
          -14 callgsubr
          48 -16 callgsubr
          37 102 -6 24 callgsubr
          -32 98 hintmask 1100010010000000
          -106 callgsubr
          hintmask 0010100100000000
          -75 554 -67 callgsubr
        </CharString>
        <CharString name="V">
          21 24 -21 695 -20 hstem
          339 698 rmoveto
          -38 -204 -39 -201 -43 -202 -46 203 -40 201 -35 201 -91 2 rcurveline
          57 -230 42 -231 47 -233 126 -1 rcurveline
          46 233 52 232 60 230 rrcurveto
          endchar
        </CharString>
        <CharString name="W">
          43 callsubr
          hstem
          -75 callgsubr
          endchar
        </CharString>
        <CharString name="Wacute">
          43 callsubr
          35 -21 175 -23 callgsubr
          -98 105 -92 callsubr
        </CharString>
        <CharString name="Wcircumflex">
          43 callsubr
          30 -21 172 -23 callgsubr
          -159 20 -104 callgsubr
        </CharString>
        <CharString name="Wdieresis">
          147 26 -21 705 97 -93 -20 hstemhm
          158 45 callsubr
          hintmask 10100000
          -75 callgsubr
          hintmask 01011000
          -137 45 -105 callsubr
        </CharString>
        <CharString name="Wgrave">
          147 26 -21 708 -21 22 -20 165 -20 hstemhm
          hintmask 10100000
          -75 callgsubr
          hintmask 01010000
          -240 12 -72 callgsubr
        </CharString>
        <CharString name="X">
          10 13 -21 714 -20 hstem
          397 hmoveto
          -48 117 -48 119 -47 118 61 116 62 115 61 115 -119 6 rcurveline
          -35 -82 -35 -82 -37 -81 -30 79 -30 79 -29 79 -114 -4 rcurveline
          50 -115 52 -114 51 -115 -53 -116 -55 -116 -54 -116 72 -6 rcurveline
          42 87 44 86 45 87 38 -88 37 -88 37 -88 rrcurveto
          endchar
        </CharString>
        <CharString name="Y">
          23 callgsubr
          hstem
          174 81 vstem
          -85 callgsubr
          endchar
        </CharString>
        <CharString name="Yacute">
          23 callgsubr
          35 -21 175 -65 callgsubr
          -56 105 -92 callsubr
        </CharString>
        <CharString name="Ycircumflex">
          23 callgsubr
          78 -21 172 -65 callgsubr
          -120 68 -104 callgsubr
        </CharString>
        <CharString name="Ydieresis">
          23 callgsubr
          65 97 hstemhm
          95 95 -16 81 -10 96 -76 callgsubr
          hintmask 00110100
          -95 94 -105 callsubr
        </CharString>
        <CharString name="Ygrave">
          23 callgsubr
          59 -21 167 -65 callgsubr
          -192 52 -72 callgsubr
        </CharString>
        <CharString name="Z">
          37 callgsubr
          hstem
          -70 callsubr
          endchar
        </CharString>
        <CharString name="Zacute">
          37 callgsubr
          56 37 callsubr
          -57 callsubr
          -47 146 -92 callsubr
        </CharString>
        <CharString name="Zcaron">
          37 callgsubr
          60 -21 169 -20 hstemhm
          -57 callsubr
          -144 206 -93 callgsubr
        </CharString>
        <CharString name="Zdotaccent">
          37 callgsubr
          41 97 hstemhm
          160 97 -57 callsubr
          -152 90 -72 callsubr
        </CharString>
        <CharString name="a">
          -35 callgsubr
          hstem
          48 callsubr
          vstem
          -107 callgsubr
          endchar
        </CharString>
        <CharString name="aacute">
          -35 callgsubr
          49 -21 175 -90 callsubr
          42 545 -92 callsubr
        </CharString>
        <CharString name="abreve">
          -35 callgsubr
          27 2 callsubr
          17 83 11 49 callgsubr
          47 75 vstem
          -107 callgsubr
          -46 545 -97 callgsubr
        </CharString>
        <CharString name="acircumflex">
          -35 callgsubr
          46 -21 172 -90 callsubr
          -31 462 -104 callgsubr
        </CharString>
        <CharString name="acute">
          -238 572 44 callsubr
          hstem
          178 662 -92 callsubr
        </CharString>
        <CharString name="adieresis">
          -35 callgsubr
          33 97 hstemhm
          17 83 1 45 callsubr
          10 75 hintmask 11101001
          -107 callgsubr
          hintmask 00010110
          -9 488 -105 callsubr
        </CharString>
        <CharString name="ae">
          29 callsubr
          hstemhm
          17 83 256 78 hintmask 10011011
          25 callsubr
          hintmask 10100111
          32 callsubr
          hintmask 10101011
          -19 callsubr
          hintmask 01011011
          -15 callsubr
          hintmask 10101011
          -5 callsubr
          hintmask 10011011
          -78 callgsubr
          endchar
        </CharString>
        <CharString name="aeacute">
          29 callsubr
          48 37 callsubr
          17 83 256 78 hintmask 1001100011000000
          25 callsubr
          hintmask 1010010011000000
          32 callsubr
          hintmask 1010100011000000
          -19 callsubr
          hintmask 0101100011000000
          -15 callsubr
          hintmask 1010100011000000
          -5 callsubr
          hintmask 1001100011000000
          -78 callgsubr
          hintmask 0000001100000000
          -12 186 -92 callsubr
        </CharString>
        <CharString name="agrave">
          -35 callgsubr
          42 -21 167 -90 callsubr
          -111 461 -72 callgsubr
        </CharString>
        <CharString name="amacron">
          -35 callgsubr
          27 66 hstemhm
          48 callsubr
          hintmask 11101100
          -107 callgsubr
          hintmask 00010000
          -16 433 -28 callgsubr
        </CharString>
        <CharString name="ampersand">
          68 -17 73 592 68 hstemhm
          14 82 0 240 -225 64 0 88 0 73 hintmask 11100100
          478 52 rmoveto
          -276 175 -27 278 62 vvcurveto
          49 23 32 26 vhcurveto
          hintmask 11010000
          21 18 -15 -36 hvcurveto
          -165 -249 -85 -193 vvcurveto
          -76 52 -95 114 238 5 371 0 vhcurveto
          -87 -3 rlineto
          hintmask 11101010
          -196 -74 -99 -60 -59 -47 46 64 vhcurveto
          216 240 27 198 vvcurveto
          62 -33 47 -78 -97 -17 -93 -54 -363 301 -208 0 vhcurveto
          0 66 47 6 vvcurveto
          1 0 0 0 vhcurveto
          endchar
        </CharString>
        <CharString name="aogonek">
          60 -99 -21 107 70 -36 -21 245 71 159 69 hstemhm
          17 83 227 45 -15 75 hintmask 11011110
          451 -96 -47 callsubr
          17 14 21 13 17 hvcurveto
          20 -1 rlineto
          hintmask 11011101
          9 106 4 170 0 vvcurveto
          -105 callgsubr
          hintmask 10111110
          -18 -1 -18 -1 -19 vhcurveto
          12 hlineto
          -19 -21 -18 -26 -25 vvcurveto
          -40 callgsubr
          -95 234 rmoveto
          hintmask 11011101
          -87 callgsubr
          endchar
        </CharString>
        <CharString name="approxequal">
          -62 202 68 4 67 26 68 4 67 39 callgsubr
          49 63 135 62 hintmask 11101110
          299 508 rmoveto
          3 callsubr
          hintmask 11110110
          -47 callgsubr
          hvcurveto
          hintmask 11101110
          62 callsubr
          vhcurveto
          -165 vmoveto
          3 callsubr
          -47 callgsubr
          62 callsubr
          hvcurveto
          endchar
        </CharString>
        <CharString name="aring">
          -35 callgsubr
          33 49 76 50 hstemhm
          17 83 35 51 76 52 43 75 hintmask 1110010010000000
          -107 callgsubr
          hintmask 0001101100000000
          -170 526 -80 callsubr
        </CharString>
        <CharString name="asciicircum">
          -211 502 -21 222 -20 hstem
          205 499 rmoveto
          -75 204 rlineto
          -55 hlineto
          -75 -201 61 -21 52 189 rlineto
          -25 hlineto
          58 -187 rlineto
          endchar
        </CharString>
        <CharString name="asciitilde">
          -66 295 68 4 67 39 callgsubr
          48 63 135 62 hintmask 10111000
          298 436 rmoveto
          3 callsubr
          hintmask 11011000
          -47 callgsubr
          hvcurveto
          hintmask 10111000
          62 callsubr
          vhcurveto
          endchar
        </CharString>
        <CharString name="asterisk">
          -54 384 -21 352 -20 hstem
          290 656 rmoveto
          -114 -108 -107 85 -40 -72 143 -56 160 75 rlineto
          -130 -40 rmoveto
          21 175 rlineto
          -80 hlineto
          12 -179 -118 -120 72 -53 67 137 97 -120 53 74 rlineto
          endchar
        </CharString>
        <CharString name="at">
          196 -37 53 61 42 -23 204 -52 52 83 51 91 59 hstemhm
          38 67 78 59 141 54 87 61 hintmask 1101111111000000
          437 285 rmoveto
          92 -40 57 -82 -7 -92 -5 -95 -21 vhcurveto
          58 -19 rlineto
          63 9 46 5 9 hhcurveto
          31 35 -18 -72 -60 0 -21 -2 -68 hvcurveto
          -47 41 -20 29 116 18 138 88 182 -93 99 -182 -222 -50 -163 -179 -138 78 -141 128 35 34 11 17 30 vhcurveto
          -24 39 rlineto
          -9 -18 -19 -5 -20 hhcurveto
          -110 -47 112 113 133 39 151 169 127 84 -79 -150 -39 -9 -138 -60 -8 -17 3 31 hvcurveto
          -132 -6 rmoveto
          -34 -22 19 28 28 19 26 44 hvcurveto
          0 42 0 43 -45 vhcurveto
          -48 -54 -44 -2 0 vvcurveto
          111 98 rmoveto
          54 -31 -73 1 -3 hhcurveto
          -71 -1 -48 -47 -58 vvcurveto
          hintmask 1010111111000000
          -67 51 -31 56 43 48 25 41 25 vhcurveto
          -9 40 rlineto
          endchar
        </CharString>
        <CharString name="atilde">
          -35 callgsubr
          27 -16 callgsubr
          17 83 8 24 callgsubr
          17 75 hintmask 1110001001000000
          -107 callgsubr
          hintmask 0001010010000000
          -25 559 -44 callgsubr
        </CharString>
        <CharString name="b">
          88 -11 71 412 79 -79 233 hstemhm
          48 68 287 74 hintmask 11011000
          477 294 rmoveto
          154 -53 100 -150 3 vhcurveto
          0 -91 1 -62 -93 vhcurveto
          hintmask 10111000
          11 246 rlineto
          -79 hlineto
          -10 -412 rlineto
          -251 91 -53 127 168 48 177 128 vhcurveto
          -74 -42 rmoveto
          -71 -2 -29 -121 -111 hhcurveto
          -114 -31 77 133 77 66 123 92 2 hvcurveto
          123 6 -146 -74 hvcurveto
          endchar
        </CharString>
        <CharString name="backslash">
          -18 15 -21 719 -20 hstem
          17 694 rmoveto
          303 -700 60 13 -276 706 rlineto
          endchar
        </CharString>
        <CharString name="bar">
          -234 -85 -21 853 -20 hstem
          60 62 vstem
          122 747 rmoveto
          -62 -853 62 hlineto
          endchar
        </CharString>
        <CharString name="braceleft">
          -158 -101 59 791 51 hstemhm
          53 73 -25 25 -25 77 hintmask 11100000
          256 770 rmoveto
          20 -20 -31 10 -28 hhcurveto
          -63 -61 -39 -82 hvcurveto
          hintmask 11010000
          -66 48 -51 -68 vvcurveto
          -63 -35 -29 -50 -13 vhcurveto
          5 -53 rlineto
          57 -4 23 -37 -55 -88 -46 -57 -84 vvcurveto
          -67 50 -45 50 19 44 7 12 16 vhcurveto
          -7 62 rlineto
          -12 -11 -32 -10 -17 hhcurveto
          -25 -16 23 45 hvcurveto
          hintmask 11001000
          74 52 66 80 vvcurveto
          61 -24 44 -64 17 vhcurveto
          57 10 34 60 54 79 -54 52 64 vvcurveto
          43 18 19 29 26 33 -28 0 vhcurveto
          endchar
        </CharString>
        <CharString name="braceright">
          -185 -81 45 797 59 hstemhm
          78 62 -26 26 -12 48 hintmask 11100000
          215 330 rmoveto
          -5 53 rlineto
          -57 4 -13 42 50 vvcurveto
          hintmask 11001000
          88 36 88 83 vvcurveto
          49 -30 33 -50 -19 -19 -7 -12 -16 vhcurveto
          7 -62 rlineto
          13 11 15 9 17 hhcurveto
          25 11 -15 -23 hvcurveto
          hintmask 11100000
          -74 -50 -95 -81 vvcurveto
          -61 24 -44 64 -17 vhcurveto
          -57 -10 -34 -60 -54 vvcurveto
          hintmask 11010000
          -79 39 -61 -64 vvcurveto
          hintmask 11100000
          -23 -8 -36 -28 -27 -17 25 23 -7 vhcurveto
          -32 -63 rlineto
          -20 20 31 -10 28 hhcurveto
          63 41 52 60 hvcurveto
          65 -38 62 67 vvcurveto
          50 25 42 50 13 vhcurveto
          endchar
        </CharString>
        <CharString name="bracketleft">
          -150 -100 71 773 61 hstemhm
          60 68 -68 204 hintmask 11010000
          266 805 rmoveto
          -199 hlineto
          -13 -905 rlineto
          65 2 127 1 0 vvcurveto
          2 68 rlineto
          hintmask 11100000
          -120 773 134 hlineto
          endchar
        </CharString>
        <CharString name="bracketright">
          -150 -79 -21 838 61 hstemhm
          2 203 -81 81 hintmask 11100000
          4 738 rmoveto
          hintmask 11010000
          120 -773 -106 hlineto
          2 -62 rlineto
          0 127 -1 65 -2 vhcurveto
          -13 899 rlineto
          -199 hlineto
          endchar
        </CharString>
        <CharString name="breve">
          -217 571 2 callsubr
          0 49 callgsubr
          vstem
          199 683 -97 callgsubr
        </CharString>
        <CharString name="brokenbar">
          -226 -84 -21 852 -20 hstem
          53 76 vstem
          134 747 rmoveto
          -81 -364 72 hlineto
          3 -488 rmoveto
          356 -65 -356 vlineto
          endchar
        </CharString>
        <CharString name="bullet">
          -141 259 152 hstem
          62 151 vstem
          213 335 rmoveto
          41 -34 35 -41 -42 -34 -35 -41 -41 34 -35 42 41 34 35 41 vhcurveto
          endchar
        </CharString>
        <CharString name="c">
          5 callgsubr
          39 callsubr
          hintmask 10110000
          -58 callsubr
          hintmask 01110000
          -37 callsubr
          hintmask 10110000
          -66 callsubr
          endchar
        </CharString>
        <CharString name="cacute">
          5 callgsubr
          45 -21 175 -75 callsubr
          26 353 -92 callsubr
        </CharString>
        <CharString name="caron">
          -215 575 -21 169 -20 hstem
          146 721 -93 callgsubr
        </CharString>
        <CharString name="ccaron">
          5 callgsubr
          48 -21 169 -75 callsubr
          -100 412 -93 callgsubr
        </CharString>
        <CharString name="ccedilla">
          47 -139 200 -68 -21 26 63 413 70 39 callsubr
          153 40 hintmask 10011100
          236 60 callgsubr
          hintmask 01111100
          32 -26 20 -25 vhcurveto
          10 28 33 4 125 26 33 120 rlinecurve
          -64 31 rlineto
          -66 callsubr
          69 19 rlineto
          -42 callsubr
          -137 61 -143 133 -5 hvcurveto
          -23 -50 -41 callsubr
          hintmask 10011100
          11 callgsubr
        </CharString>
        <CharString name="ccircumflex">
          5 callgsubr
          43 -21 172 -75 callsubr
          -43 271 -104 callgsubr
        </CharString>
        <CharString name="cdotaccent">
          5 callgsubr
          30 97 39 callsubr
          82 97 hintmask 10101000
          -58 callsubr
          hintmask 01101000
          -37 callsubr
          hintmask 10101000
          -66 callsubr
          hintmask 00010100
          -97 297 -72 callsubr
        </CharString>
        <CharString name="cedilla">
          -269 -118 -21 132 -21 51 -20 hstem
          92 40 vstem
          74 -139 21 callsubr
          18 48 -28 3 -36 -75 -45 callgsubr
        </CharString>
        <CharString name="cent">
          -65 -49 -21 100 55 282 59 -23 167 hstemhm
          22 63 0 185 -135 63 hintmask 11101010
          328 276 rmoveto
          51 -5 -33 99 -120 hhcurveto
          -102 -46 -87 -102 -100 47 -107 101 65 67 45 71 26 hvcurveto
          -55 27 rlineto
          -26 -86 -68 -2 0 vvcurveto
          -63 -31 90 54 56 9 82 77 hvcurveto
          hintmask 11010100
          0 91 0 8 -105 vhcurveto
          -69 308 rmoveto
          hintmask 11011010
          -66 -167 61 hlineto
          1 -473 rmoveto
          144 -55 -144 vlineto
          endchar
        </CharString>
        <CharString name="circumflex">
          -215 572 45 callgsubr
          hstem
          201 582 -104 callgsubr
        </CharString>
        <CharString name="colon">
          -238 3 85 323 85 hstem
          46 86 vstem
          132 46 -50 callsubr
          408 vmoveto
          19 callsubr
        </CharString>
        <CharString name="comma">
          -21 callgsubr
        </CharString>
        <CharString name="copyright">
          84 65 39 397 39 57 35 hstem
          39 50 47 54 125 46 48 51 vstem
          361 413 rmoveto
          10 vlineto
          117 -94 0 0 -89 -42 -65 -124 -120 44 -63 78 vhcurveto
          0 77 0 16 102 vhcurveto
          -43 3 rlineto
          -11 -71 -40 8 callgsubr
          -41 -26 51 100 100 29 48 44 1 51 0 -91 hvcurveto
          145 -42 rmoveto
          156 -66 108 -144 -130 -81 -108 -156 -182 94 -121 117 116 94 115 188 vhcurveto
          -51 -1 rmoveto
          -163 -71 -100 -88 -90 -71 105 158 137 61 93 100 110 49 -93 -137 vhcurveto
          endchar
        </CharString>
        <CharString name="currency">
          -34 158 53 -37 -21 247 49 16 -20 hstemhm
          62 57 146 58 hintmask 10101100
          265 309 rmoveto
          -66 -32 -32 -40 -41 -33 37 61 55 29 36 45 50 22 -43 -48 vhcurveto
          81 117 rmoveto
          hintmask 10011100
          -36 39 -39 -38 rlineto
          hintmask 10101100
          14 -20 -26 8 -32 hhcurveto
          -31 -26 -9 -15 -21 hvcurveto
          -37 37 -43 -46 40 -40 rlineto
          -8 -20 -5 -22 -25 vvcurveto
          -27 4 -23 9 -20 vhcurveto
          -36 -35 34 -49 35 35 rlineto
          -21 23 30 -11 32 hhcurveto
          29 27 9 18 21 hvcurveto
          hintmask 01101100
          33 -32 44 42 -39 39 rlineto
          9 21 6 25 29 vvcurveto
          29 -6 27 -11 21 vhcurveto
          endchar
        </CharString>
        <CharString name="d">
          93 42 callgsubr
          155 -20 hstemhm
          26 72 287 70 hintmask 10111100
          -12 callgsubr
          hintmask 01111100
          -1 callsubr
          endchar
        </CharString>
        <CharString name="dagger">
          -104 -44 -21 612 73 -73 200 hstemhm
          22 170 -73 73 -73 171 hintmask 10101000
          201 60 callsubr
          hintmask 11000100
          107 612 rmoveto
          73 vlineto
          hintmask 11010000
          -268 -73 hlineto
          endchar
        </CharString>
        <CharString name="daggerdbl">
          -86 -65 201 -63 63 417 67 -67 194 hstemhm
          33 170 -73 73 hintmask 10010100
          212 60 callsubr
          107 624 rmoveto
          hintmask 01101000
          61 -268 -73 vlineto
          -2 -411 rmoveto
          -63 261 vlineto
          4 63 rlineto
          endchar
        </CharString>
        <CharString name="dcaron">
          187 42 callgsubr
          23 -10 callsubr
          49 -20 hstemhm
          26 72 287 70 44 73 hintmask 1010011100000000
          -12 callgsubr
          hintmask 0110011100000000
          -1 callsubr
          hintmask 0001100010000000
          191 373 -102 callsubr
        </CharString>
        <CharString name="dcroat">
          93 42 callgsubr
          39 66 50 -20 hstemhm
          26 72 215 194 -122 70 -70 122 hintmask 1011110010000000
          507 589 rmoveto
          66 vlineto
          hintmask 1011110100000000
          -52 50 hlineto
          -70 -3 rlineto
          -47 vlineto
          hintmask 1011111000000000
          -72 -66 hlineto
          hintmask 1011110100000000
          72 -146 hlineto
          -30 callsubr
          hintmask 0111110100000000
          -76 67 580 vlineto
          hintmask 1011111000000000
          -74 -323 -20 callsubr
          endchar
        </CharString>
        <CharString name="degree">
          -191 490 49 76 50 hstem
          23 51 76 52 vstem
          74 577 -80 callsubr
        </CharString>
        <CharString name="dieresis">
          -170 565 97 hstem
          0 45 callsubr
          vstem
          246 614 -105 callsubr
        </CharString>
        <CharString name="divide">
          -16 167 82 28 73 27 82 hstem
          155 82 vstem
          237 208 20 callsubr
          10 210 20 callsubr
          112 -141 11 callsubr
        </CharString>
        <CharString name="dollar">
          -81 51 -21 101 58 314 40 -40 167 hstemhm
          29 68 31 64 46 57 -57 73 hintmask 11101101
          308 379 rmoveto
          1 12 2 12 4 vvcurveto
          134 -137 2 0 -109 -36 -72 -57 -39 32 -64 96 -22 vhcurveto
          55 -13 18 -19 -20 vvcurveto
          -23 -24 -23 -35 -2 vhcurveto
          -6 -60 0 80 -9 hvcurveto
          -67 -4 rlineto
          -131 15 107 -3 10 hhcurveto
          hintmask 11011110
          114 20 74 36 38 -25 54 -98 18 hvcurveto
          -48 9 -27 29 25 vvcurveto
          43 30 23 45 40 26 -36 -44 vhcurveto
          -18 vlineto
          -42 288 rmoveto
          -68 -167 61 hlineto
          2 -473 rmoveto
          144 -56 -144 vlineto
          endchar
        </CharString>
        <CharString name="dotaccent">
          -319 574 97 hstem
          0 97 vstem
          97 623 -72 callsubr
        </CharString>
        <CharString name="dotlessi">
          12 callgsubr
          hstem
          54 82 vstem
          -36 callsubr
          endchar
        </CharString>
        <CharString name="dotlessj">
          58 callgsubr
          hstem
          45 85 vstem
          133 hmoveto
          -9 callsubr
          -49 callsubr
          endchar
        </CharString>
        <CharString name="e">
          -34 callgsubr
          hstem
          26 75 vstem
          -106 callsubr
          endchar
        </CharString>
        <CharString name="eacute">
          -34 callgsubr
          46 -21 175 -91 callsubr
          170 211 -92 callsubr
        </CharString>
        <CharString name="ebreve">
          -34 callgsubr
          30 2 callsubr
          26 75 37 49 callgsubr
          vstem
          -106 callsubr
          95 217 -97 callgsubr
        </CharString>
        <CharString name="ecaron">
          -34 callgsubr
          56 -21 169 -91 callsubr
          41 277 -93 callgsubr
        </CharString>
        <CharString name="ecircumflex">
          -34 callgsubr
          47 -21 172 -91 callsubr
          99 132 -104 callgsubr
        </CharString>
        <CharString name="edieresis">
          -34 callgsubr
          35 97 39 callsubr
          17 45 callsubr
          hintmask 11101000
          -106 callsubr
          hintmask 00010110
          122 159 -105 callsubr
        </CharString>
        <CharString name="edotaccent">
          -34 callgsubr
          31 97 39 callsubr
          88 97 hintmask 11101000
          -106 callsubr
          hintmask 00010100
          44 155 -72 callsubr
        </CharString>
        <CharString name="egrave">
          -34 callgsubr
          47 -21 167 -91 callsubr
          4 135 -72 callgsubr
        </CharString>
        <CharString name="eight">
          47 -20 49 345 51 -28 28 246 55 hstemhm
          28 90 -58 84 164 82 -43 94 hintmask 11011001
          441 217 rmoveto
          0 -3 179 -155 24 vhcurveto
          -4 -31 rlineto
          hintmask 10110110
          101 34 10 131 0 vvcurveto
          97 -71 75 -91 -78 -90 -54 -108 0 1 -162 130 -5 vhcurveto
          -2 28 rlineto
          hintmask 11011001
          -155 -10 -6 -164 -25 vvcurveto
          -218 130 -28 76 72 135 57 180 vhcurveto
          hintmask 11010110
          -133 335 rmoveto
          -75 -42 -44 -40 -40 -42 49 70 88 42 31 40 40 42 -38 -81 vhcurveto
          hintmask 11011001
          39 -351 rmoveto
          -129 -61 -43 -51 -51 -66 58 114 143 66 30 51 51 61 -25 -148 vhcurveto
          endchar
        </CharString>
        <CharString name="ellipsis">
          13 3 85 hstem
          29 86 57 86 57 86 cntrmask 01110000
          115 46 -50 callsubr
          143 hmoveto
          -68 callgsubr
          143 hmoveto
          19 callsubr
        </CharString>
        <CharString name="emacron">
          -34 callgsubr
          31 66 39 callsubr
          hintmask 11101000
          -106 callsubr
          hintmask 00010000
          104 106 -28 callgsubr
        </CharString>
        <CharString name="emdash">
          275 55 callgsubr
          645 277 rmoveto
          73 -599 -73 vlineto
          endchar
        </CharString>
        <CharString name="endash">
          76 55 callgsubr
          446 277 rmoveto
          73 -400 -73 vlineto
          endchar
        </CharString>
        <CharString name="eng">
          39 -193 -21 653 78 hstemhm
          58 79 195 88 -72 72 hintmask 11110000
          391 397 rmoveto
          -94 callgsubr
          hintmask 11101000
          -3 6 19 -145 -178 -43 callgsubr
          79 38 callsubr
          145 -13 110 -16 142 vhcurveto
          endchar
        </CharString>
        <CharString name="eogonek">
          56 -90 -21 128 -21 291 65 124 75 hstem
          26 75 131 45 vstem
          356 -87 -47 callsubr
          19 16 23 14 17 hvcurveto
          47 19 59 41 22 92 -60 17 rcurveline
          -83 callgsubr
          355 hlineto
          -24 callgsubr
          -192 -27 -176 -101 -109 44 -169 172 vhcurveto
          0 7 0 11 2 vhcurveto
          -16 -18 -12 -22 -21 vvcurveto
          -40 callgsubr
          -114 563 15 callsubr
        </CharString>
        <CharString name="equal">
          0 237 77 71 67 hstem
          367 21 callgsubr
          endchar
        </CharString>
        <CharString name="eth">
          60 -13 callgsubr
          208 -20 hstem
          62 callgsubr
          vstem
          400 661 rmoveto
          -18 58 -77 -24 rlineto
          -34 43 -27 23 0 vvcurveto
          -94 -45 20 -17 19 -18 17 -17 rlinecurve
          -41 -13 22 -70 68 25 15 -20 13 -21 12 -20 rlinecurve
          5 -18 -20 3 -22 hhcurveto
          -65 callsubr
          114 93 113 186 1 hvcurveto
          1 vlineto
          -4 127 -31 117 -64 106 rrcurveto
          23 -350 rmoveto
          -84 callgsubr
          endchar
        </CharString>
        <CharString name="exclam">
          -220 -39 83 672 -20 hstemhm
          48 78 -78 101 -81 58 hintmask 11100000
          149 716 rmoveto
          -101 -9 rlineto
          hintmask 11001000
          14 -214 5 -194 1 -214 58 -1 rcurveline
          hintmask 11010000
          4 216 7 201 12 215 rrcurveto
          -13 -714 20 callgsubr
          endchar
        </CharString>
        <CharString name="exclamdown">
          -232 -218 -21 672 83 hstemhm
          42 78 -78 101 -81 58 hintmask 11010000
          143 -239 rmoveto
          hintmask 11001000
          -12 215 -7 201 -4 216 -58 -1 rcurveline
          hintmask 11100000
          -1 -214 -5 -194 -14 -214 rrcurveto
          hintmask 11010000
          88 705 rmoveto
          22 -19 19 -23 -23 -18 -19 -22 -23 18 -19 23 23 19 19 23 vhcurveto
          endchar
        </CharString>
        <CharString name="f">
          -156 23 -21 423 75 131 86 hstem
          82 69 -69 179 vstem
          262 717 rmoveto
          -6 callsubr
          100 76 hlineto
          -98 -2 rlineto
          6 1 4 0 vhcurveto
          1 callgsubr
          endchar
        </CharString>
        <CharString name="fi">
          44 23 -21 423 73 104 115 -86 86 -1 -20 hstemhm
          82 69 149 115 -101 82 hintmask 11010101
          157 497 rmoveto
          1 7 0 5 0 vvcurveto
          1 callgsubr
          2 88 rlineto
          -6 callsubr
          159 -413 82 488 hlineto
          hintmask 11001110
          19 159 10 callgsubr
          vhcurveto
          hintmask 11100110
          10 callsubr
          endchar
        </CharString>
        <CharString name="five">
          9 -29 59 346 63 173 78 hstem
          30 84 199 82 vstem
          395 180 rmoveto
          10 1 9 9 vvcurveto
          154 -87 77 -93 -14 -75 -1 -34 -40 vhcurveto
          29 -13 28 253 -38 -32 rlineto
          259 78 -291 hlineto
          -21 -324 46 -21 rlineto
          36 29 69 2 0 vvcurveto
          48 61 -40 -129 -105 -45 -72 -56 -11 -87 1 163 21 2 23 3 27 hvcurveto
          -85 -3 rlineto
          -3 -23 -1 -20 -20 vvcurveto
          -176 104 -52 72 78 101 35 174 10 vhcurveto
          endchar
        </CharString>
        <CharString name="fl">
          44 23 -21 22 -21 422 75 131 86 hstemhm
          82 69 163 78 hintmask 10111100
          392 689 rmoveto
          0 -51 28 -79 -86 -94 -41 -151 vhcurveto
          -28 callsubr
          100 76 hlineto
          -98 -2 rlineto
          53 3 17 79 65 hhcurveto
          5 39 -1 -9 28 hvcurveto
          hintmask 01111100
          -618 78 vlineto
          endchar
        </CharString>
        <CharString name="florin">
          -120 -193 -21 639 73 133 86 hstemhm
          22 153 -75 75 hintmask 11110000
          22 496 rmoveto
          -71 250 76 vlineto
          -98 -501 rmoveto
          1 171 0 157 181 vvcurveto
          hintmask 11101000
          -26 callsubr
        </CharString>
        <CharString name="four">
          5 16 -21 280 67 392 -20 hstemhm
          267 93 -93 119 hintmask 11101000
          386 342 rmoveto
          -307 hlineto
          15 -40 84 375 -90 8 -70 -410 rlineto
          368 hlineto
          -119 459 rmoveto
          -739 vlineto
          hintmask 11110000
          93 739 hlineto
          endchar
        </CharString>
        <CharString name="fraction">
          -89 87 -21 584 -20 hstem
          322 -2 callgsubr
          endchar
        </CharString>
        <CharString name="g">
          -21 callsubr
          106 23 callsubr
          256 70 -70 86 hintmask 1111111010000000
          -61 callsubr
          hintmask 1111110101000000
          -97 callsubr
          hintmask 1111111010000000
          -85 callsubr
          endchar
        </CharString>
        <CharString name="gbreve">
          -21 callsubr
          32 47 27 -20 61 23 callsubr
          6 49 callgsubr
          51 70 -70 86 hintmask 1111111110111000
          -61 callsubr
          hintmask 1111111101110100
          -97 callsubr
          hintmask 1111111110111000
          -85 callsubr
          -51 413 -97 callgsubr
        </CharString>
        <CharString name="gcircumflex">
          -21 callsubr
          43 -21 84 -20 108 23 callsubr
          256 70 -70 86 hintmask 1111101010100000
          -61 callsubr
          hintmask 1111101001010000
          -97 callsubr
          hintmask 1111101010100000
          -85 callsubr
          hintmask 0000010100000000
          -46 322 -104 callgsubr
        </CharString>
        <CharString name="gcommaaccent">
          -21 callsubr
          50 -21 77 -20 67 23 callsubr
          76 73 107 70 -70 86 hintmask 1111101010010000
          -61 callsubr
          hintmask 1111101001001000
          -97 callsubr
          hintmask 1111101010010000
          -85 callsubr
          hintmask 0000010100100000
          -180 335 -4 callgsubr
        </CharString>
        <CharString name="gdotaccent">
          -21 callsubr
          25 97 -16 23 callsubr
          66 97 93 70 -70 86 hintmask 1111101100100000
          -61 callsubr
          hintmask 1111101010010000
          -97 callsubr
          hintmask 1111101100100000
          -85 callsubr
          hintmask 0000010001000000
          -93 343 -72 callsubr
        </CharString>
        <CharString name="germandbls">
          157 -2 68 359 72 134 76 hstemhm
          5 146 -69 69 55 81 10 80 112 79 hintmask 11101111
          377 577 rmoveto
          111 -86 19 -40 -61 -108 -31 -151 vhcurveto
          -26 vlineto
          hintmask 11110111
          -77 -3 rlineto
          -71 vlineto
          hintmask 11101111
          77 hlineto
          1 callsubr
          1 366 6 139 0 vvcurveto
          0 4 122 80 6 49 -1 -59 vhcurveto
          -62 -91 -15 -103 vvcurveto
          -53 36 -88 140 -28 vhcurveto
          -79 callsubr
          75 90 9 102 vvcurveto
          endchar
        </CharString>
        <CharString name="grave">
          -231 572 -21 167 -20 hstem
          185 585 -72 callgsubr
        </CharString>
        <CharString name="greater">
          -105 140 -21 391 -20 hstem
          284 40 callgsubr
          82 vlineto
          -223 141 -28 -89 197 -100 -186 -120 35 -82 rlineto
          endchar
        </CharString>
        <CharString name="guillemotleft">
          -13 207 47 callsubr
          191 256 -10 callgsubr
          207 70 -10 callgsubr
          endchar
        </CharString>
        <CharString name="guillemotright">
          -6 207 47 callsubr
          203 286 -4 callsubr
          322 100 -4 callsubr
          endchar
        </CharString>
        <CharString name="guilsinglleft">
          -180 157 47 callsubr
          198 206 -10 callgsubr
          endchar
        </CharString>
        <CharString name="guilsinglright">
          -180 157 47 callsubr
          204 236 -4 callsubr
          endchar
        </CharString>
        <CharString name="h">
          52 callsubr
          191 -20 hstem
          61 callsubr
          vstem
          -44 callsubr
          endchar
        </CharString>
        <CharString name="hbar">
          52 callsubr
          29 59 -59 160 2 -20 hstem
          61 callsubr
          vstem
          219 543 rmoveto
          59 -92 99 vlineto
          -84 4 rlineto
          0 2 -35 3 -68 vhcurveto
          -42 -59 44 hlineto
          3 -116 4 -178 -239 vvcurveto
          -23 callsubr
          67 4 rlineto
          -25 callgsubr
          249 vlineto
          endchar
        </CharString>
        <CharString name="hcircumflex">
          52 callsubr
          41 -21 171 46 callsubr
          hstemhm
          61 callsubr
          hintmask 11010110
          -44 callsubr
          hintmask 00101000
          17 559 -104 callgsubr
        </CharString>
        <CharString name="hungarumlaut">
          -138 572 -21 201 -20 hstem
          278 662 -52 callgsubr
        </CharString>
        <CharString name="hyphen">
          26 callgsubr
        </CharString>
        <CharString name="i">
          33 -21 590 114 hstem
          40 115 -98 75 vstem
          -12 callsubr
          endchar
        </CharString>
        <CharString name="iacute">
          12 callgsubr
          70 37 callsubr
          54 82 -3 callgsubr
          hintmask 00110000
          134 146 -92 callsubr
        </CharString>
        <CharString name="ibreve">
          12 callgsubr
          58 54 callsubr
          -2 60 -4 82 1 60 hintmask 11110110
          -36 callsubr
          61 156 -68 callsubr
          vhcurveto
          hintmask 11111010
          -50 callgsubr
          hvcurveto
          -73 callgsubr
        </CharString>
        <CharString name="icircumflex">
          12 callgsubr
          72 48 callgsubr
          54 82 -3 callgsubr
          hintmask 00110000
          65 68 -104 callgsubr
        </CharString>
        <CharString name="idieresis">
          12 callgsubr
          56 97 hstemhm
          -23 95 -18 82 -9 96 -3 callgsubr
          hintmask 00110100
          87 91 -105 callsubr
        </CharString>
        <CharString name="igrave">
          12 callgsubr
          74 -21 167 57 callsubr
          82 -3 callgsubr
          hintmask 00110000
          -16 73 -72 callgsubr
        </CharString>
        <CharString name="ij">
          -29 -193 -21 247 -21 590 114 hstemhm
          40 115 -98 75 90 112 -89 89 hintmask 11110100
          -12 callsubr
          201 159 -9 callgsubr
          hintmask 11101010
          -49 callsubr
          endchar
        </CharString>
        <CharString name="imacron">
          12 callgsubr
          61 66 hstemhm
          54 82 hintmask 11010000
          -36 callsubr
          hintmask 00100000
          64 47 -28 callgsubr
        </CharString>
        <CharString name="infinity">
          41 205 64 -51 51 89 51 hstemhm
          39 57 263 57 hintmask 01111000
          416 312 rmoveto
          58 -29 39 -61 -36 -45 -45 -26 -19 vhcurveto
          27 -24 -47 38 -39 hhcurveto
          -51 -26 -45 -46 -45 28 -49 50 37 41 32 27 22 hvcurveto
          hintmask 10111000
          -30 23 45 -42 41 hhcurveto
          69 21 46 61 hvcurveto
          -57 4 rmoveto
          -25 -18 -22 -26 -22 -35 36 14 -14 vhcurveto
          -1 -16 rlineto
          31 25 27 24 21 hhcurveto
          27 16 -15 -27 hvcurveto
          -159 -3 rmoveto
          -17 -11 -28 -28 -21 hhcurveto
          -25 -19 13 27 23 10 18 25 19 31 -30 -18 18 hvcurveto
          -1 -1 13 2 vhcurveto
          endchar
        </CharString>
        <CharString name="integral">
          -123 -93 -21 845 86 hstem
          109 74 -74 178 vstem
          184 609 rmoveto
          -26 callsubr
        </CharString>
        <CharString name="iogonek">
          -91 -21 714 114 hstemhm
          30 45 -45 125 -98 75 hintmask 11001000
          154 -88 -40 callsubr
          hintmask 11100000
          -10 -7 9 10 19 17 24 14 17 hvcurveto
          22 hlineto
          8 488 -82 6 7 -494 rlineto
          10 hlineto
          -20 -21 -21 -28 -27 vvcurveto
          -40 callgsubr
          hintmask 11010000
          1 747 -7 callgsubr
          endchar
        </CharString>
        <CharString name="itilde">
          12 callgsubr
          51 -16 callgsubr
          -16 232 -162 82 25 55 hintmask 11000010
          -36 callsubr
          hintmask 00101001
          71 163 -67 callsubr
          hintmask 00110100
          -98 callgsubr
          hintmask 00101100
          -29 callsubr
        </CharString>
        <CharString name="j">
          -229 -193 -21 816 114 hstemhm
          22 112 -89 89 hintmask 11100000
          137 659 -9 callgsubr
          hintmask 11010000
          -49 callsubr
          endchar
        </CharString>
        <CharString name="jcircumflex">
          58 callgsubr
          81 48 callgsubr
          45 85 hintmask 11001000
          133 hmoveto
          -9 callsubr
          -49 callsubr
          hintmask 00110000
          61 582 -104 callgsubr
        </CharString>
        <CharString name="k">
          -4 13 56 callsubr
          hintmask 11100000
          39 696 rmoveto
          hintmask 11010000
          -39 callsubr
          endchar
        </CharString>
        <CharString name="kcommaaccent">
          -4 -125 -10 callsubr
          55 56 callsubr
          38 73 hintmask 00111000
          39 696 rmoveto
          hintmask 00110100
          -39 callsubr
          hintmask 00111000
          hintmask 11000010
          105 -753 -102 callsubr
        </CharString>
        <CharString name="kgreenlandic">
          -4 13 -21 525 -20 hstemhm
          39 95 -75 63 hintmask 11100000
          39 517 rmoveto
          hintmask 11010000
          11 -232 6 -51 3 -229 rrcurveto
          61 hlineto
          5 115 35 42 34 43 33 -31 callsubr
          -57 -96 -60 -93 rrcurveto
          hintmask 11100000
          3 81 1 74 132 vvcurveto
          endchar
        </CharString>
        <CharString name="l">
          24 -21 692 -20 hstem
          59 68 vstem
          -25 callsubr
          endchar
        </CharString>
        <CharString name="lacute">
          24 -21 692 -20 60 37 callsubr
          59 68 hintmask 11001000
          -25 callsubr
          hintmask 00110000
          132 136 -92 callsubr
        </CharString>
        <CharString name="lcaron">
          -143 24 -21 570 -10 callsubr
          39 -20 hstemhm
          59 68 42 73 hintmask 10011000
          -25 callsubr
          hintmask 01100100
          110 -50 -102 callsubr
        </CharString>
        <CharString name="lcommaaccent">
          -133 -10 callsubr
          74 -21 692 -20 hstemhm
          53 73 -67 68 hintmask 00110100
          -25 callsubr
          hintmask 11001000
          -6 -756 -102 callsubr
        </CharString>
        <CharString name="ldotaccent">
          -134 24 -21 298 85 309 -20 hstemhm
          59 68 38 86 hintmask 10110000
          -25 callsubr
          hintmask 01001000
          119 -345 rmoveto
          19 callsubr
        </CharString>
        <CharString name="less">
          -107 140 -21 391 -20 hstem
          275 208 rmoveto
          -197 100 186 120 -35 82 -205 -168 5 -82 219 -141 rlineto
          endchar
        </CharString>
        <CharString name="logicalnot">
          4 193 216 -73 73 hstemhm
          298 70 hintmask 10100000
          368 193 rmoveto
          216 -324 vlineto
          hintmask 01100000
          -73 254 vlineto
          hintmask 10100000
          -143 vlineto
          endchar
        </CharString>
        <CharString name="lslash">
          -202 33 -21 683 -20 hstem
          59 85 vstem
          225 319 rmoveto
          -18 58 -63 -20 rlineto
          332 vlineto
          -85 6 rlineto
          -365 vlineto
          -69 -21 22 -70 47 17 rlineto
          -244 85 276 vlineto
          endchar
        </CharString>
        <CharString name="m">
          186 28 -21 417 69 -69 85 hstemhm
          54 81 144 77 129 72 hintmask 11011100
          541 11 rmoveto
          11 101 5 80 64 vvcurveto
          197 -49 40 -54 -6 -54 -3 -91 -49 vhcurveto
          hintmask 10111100
          74 -13 -31 36 -35 hhcurveto
          -73 -42 -116 -54 -16 hvcurveto
          157 vlineto
          -89 4 rlineto
          0 8 -147 -206 vvcurveto
          -43 0 -46 -1 -47 vhcurveto
          67 2 14 104 -2 100 54 118 rlinecurve
          58 27 19 31 14 hhcurveto
          16 17 -48 -151 -53 -2 -74 -9 -91 hvcurveto
          72 4 rlineto
          12 83 4 75 62 vvcurveto
          24 -1 21 -1 19 vhcurveto
          81 30 32 38 24 hhcurveto
          31 14 -51 -96 -52 -3 -95 -16 -106 hvcurveto
          endchar
        </CharString>
        <CharString name="macron">
          -211 571 66 hstem
          205 571 -28 callgsubr
        </CharString>
        <CharString name="minus">
          0 55 callgsubr
          367 277 11 callsubr
        </CharString>
        <CharString name="mu">
          51 -173 -21 183 -14 callsubr
          hstemhm
          48 78 211 81 -64 64 hintmask 11011010
          354 502 rmoveto
          -98 callsubr
          141 7 42 282 vhcurveto
          hintmask 10111100
          -30 -2 rlineto
          -280 81 506 vlineto
          hintmask 11011010
          -293 -696 rmoveto
          447 vlineto
          -77 14 rlineto
          -461 vlineto
          endchar
        </CharString>
        <CharString name="multiply">
          -57 199 -21 280 -20 hstem
          315 409 rmoveto
          -42 44 -234 -219 61 -56 rlineto
          173 5 rmoveto
          44 42 -219 233 -56 -60 rlineto
          endchar
        </CharString>
        <CharString name="n">
          16 callsubr
          -74 callsubr
          endchar
        </CharString>
        <CharString name="nacute">
          16 callsubr
          41 44 callsubr
          -74 callsubr
          28 650 -92 callsubr
        </CharString>
        <CharString name="napostrophe">
          99 19 13 callsubr
          56 43 callgsubr
          7 79 216 67 vstem
          111 639 -103 callsubr
          369 -637 -96 callgsubr
          endchar
        </CharString>
        <CharString name="nbspace">
          -186 endchar
        </CharString>
        <CharString name="ncaron">
          16 callsubr
          58 -21 169 -20 -74 callsubr
          -80 723 -93 callgsubr
        </CharString>
        <CharString name="ncommaaccent">
          39 -122 -10 callsubr
          58 13 callsubr
          hstem
          58 79 54 73 89 -88 callgsubr
          -89 -54 -102 callsubr
        </CharString>
        <CharString name="nine">
          49 -18 61 201 71 349 64 hstemhm
          29 87 214 99 vstemhm
          429 378 rmoveto
          209 -6 -62 141 -139 hhcurveto
          -119 -74 -103 -147 -161 90 -73 87 7 7 49 callsubr
          hvcurveto
          0 117 15 24 183 vhcurveto
          -38 116 rlineto
          -244 -109 0 0 -73 -32 105 63 125 55 56 50 vhcurveto
          hintmask 11111000
          66 61 -95 -190 -293 -82 -43 -42 -11 -61 2 103 -15 hvcurveto
          -88 -14 rlineto
          -143 20 118 -9 32 hhcurveto
          156 54 189 207 hvcurveto
          endchar
        </CharString>
        <CharString name="notequal">
          -16 161 -21 97 77 71 67 84 -20 hstem
          359 21 callgsubr
          283 278 rmoveto
          -60 21 -186 -388 52 -8 rlineto
          endchar
        </CharString>
        <CharString name="ntilde">
          16 callsubr
          33 -16 callgsubr
          58 79 -22 24 callgsubr
          6 67 hintmask 1011011011000000
          -93 callsubr
          -15 678 -67 callsubr
          hintmask 1101100101000000
          -98 callgsubr
          hintmask 1101011011000000
          -29 callsubr
        </CharString>
        <CharString name="numbersign">
          -32 125 186 -166 -21 122 65 62 65 -65 195 hstemhm
          39 119 -51 51 60 56 -56 129 hintmask 1001010010000000
          349 372 rmoveto
          66 -310 -63 vlineto
          308 -131 rmoveto
          67 -314 -63 vlineto
          183 -123 rmoveto
          hintmask 1000110100000000
          58 443 -53 hlineto
          hintmask 0111001100000000
          -114 -444 rmoveto
          51 442 -51 hlineto
          endchar
        </CharString>
        <CharString name="o">
          -18 callsubr
          hstem
          62 callgsubr
          vstem
          -101 callsubr
          endchar
        </CharString>
        <CharString name="oacute">
          -18 callsubr
          47 -21 175 -82 callgsubr
          61 400 -92 callsubr
        </CharString>
        <CharString name="obreve">
          -18 callsubr
          32 2 callsubr
          26 76 33 49 callgsubr
          33 76 vstem
          -101 callsubr
          -33 407 -97 callgsubr
        </CharString>
        <CharString name="ocircumflex">
          -18 callsubr
          48 -21 172 -82 callgsubr
          -32 321 -104 callgsubr
        </CharString>
        <CharString name="odieresis">
          -18 callsubr
          24 97 hstemhm
          26 76 9 45 callsubr
          10 76 hintmask 11010010
          -101 callsubr
          hintmask 00101100
          -10 336 -105 callsubr
        </CharString>
        <CharString name="oe">
          400 -10 74 -47 -21 291 65 135 64 2 22 callgsubr
          78 hintmask 10110110
          800 30 callsubr
          -94 -55 -43 -55 -31 vhcurveto
          hintmask 10101110
          63 -33 -57 37 -84 hhcurveto
          -65 callsubr
          70 63 43 76 37 hvcurveto
          hintmask 01110110
          -63 32 55 -50 94 hhcurveto
          -94 callsubr
          -78 3 rmoveto
          hintmask 10110110
          -84 callgsubr
          219 186 15 callsubr
        </CharString>
        <CharString name="ogonek">
          -262 -108 -21 142 -20 hstem
          15 45 vstem
          139 -105 -47 callsubr
          23 26 31 14 16 hvcurveto
          -25 8 rlineto
          -24 -22 -36 -37 -35 vvcurveto
          15 callgsubr
        </CharString>
        <CharString name="ograve">
          -18 callsubr
          50 -21 167 -82 callgsubr
          -141 326 -72 callgsubr
        </CharString>
        <CharString name="ohungarumlaut">
          -18 callsubr
          43 -21 201 -82 callgsubr
          70 396 -52 callgsubr
        </CharString>
        <CharString name="omacron">
          -18 callsubr
          32 66 hstemhm
          62 callgsubr
          hintmask 11011000
          -101 callsubr
          hintmask 00100000
          -30 295 -28 callgsubr
        </CharString>
        <CharString name="one">
          -144 16 -21 737 -20 hstem
          127 88 vstem
          116 732 rmoveto
          -112 -104 53 -67 82 84 -12 21 rlineto
          -671 88 728 vlineto
          endchar
        </CharString>
        <CharString name="onehalf">
          94 79 41 -33 -21 285 38 261 -20 hstemhm
          85 60 135 59 78 61 hintmask 01111110
          -1 callgsubr
          330 -356 rmoveto
          3 11 0 10 11 vvcurveto
          -2 callsubr
          -5 -1 -12 -1 -8 vhcurveto
          0 -22 -75 -105 -86 vhcurveto
          hintmask 10111110
          59 callsubr
          93 71 15 67 0 vvcurveto
          endchar
        </CharString>
        <CharString name="onequarter">
          74 30 callgsubr
          257 -20 hstemhm
          85 60 236 63 hintmask 01100111
          -1 callgsubr
          hintmask 10000111
          311 -380 rmoveto
          -133 hlineto
          hintmask 01010111
          40 callsubr
          hintmask 10000111
          hintmask 01001111
          -75 201 rmoveto
          hintmask 10000111
          -313 63 vlineto
          hintmask 01001111
          313 vlineto
          endchar
        </CharString>
        <CharString name="onesuperior">
          -231 328 -21 313 -20 hstem
          76 60 vstem
          75 620 3 callgsubr
          endchar
        </CharString>
        <CharString name="ordfeminine">
          -96 252 52 34 204 -52 52 83 50 hstemhm
          32 59 141 54 hintmask 11011100
          279 345 rmoveto
          4 52 3 56 74 vvcurveto
          92 -40 56 -82 -55 -48 -38 -61 -17 vhcurveto
          58 -20 rlineto
          35 6 23 34 35 hhcurveto
          31 35 -19 -71 hvcurveto
          -35 vlineto
          -46 0 -54 -2 -55 vhcurveto
          28 140 rmoveto
          56 -31 -73 1 -3 hhcurveto
          -71 -2 -48 -46 -59 vvcurveto
          -66 51 -31 56 44 45 22 42 27 vhcurveto
          -9 41 rlineto
          -99 -54 rmoveto
          -34 -22 18 28 hvcurveto
          hintmask 10111100
          28 19 27 44 vhcurveto
          0 42 0 44 -46 vhcurveto
          -48 -54 -45 -1 0 vvcurveto
          135 -137 rmoveto
          52 -248 -52 vlineto
          endchar
        </CharString>
        <CharString name="ordmasculine">
          -107 253 53 36 53 239 49 hstem
          24 57 146 58 vstem
          285 523 rmoveto
          94 -43 66 -87 -79 -52 -66 -94 -109 59 -72 72 71 59 68 113 vhcurveto
          -58 hmoveto
          -79 -32 -49 -40 -41 -33 50 78 66 29 45 45 50 22 -45 -66 vhcurveto
          50 -270 rmoveto
          53 -248 -53 vlineto
          endchar
        </CharString>
        <CharString name="oslash">
          -18 callsubr
          25 -20 hstem
          62 callgsubr
          vstem
          -57 callgsubr
          endchar
        </CharString>
        <CharString name="oslashacute">
          -18 callsubr
          25 -20 45 -21 175 26 callsubr
          hintmask 11100110
          -57 callgsubr
          hintmask 00011000
          294 403 -92 callsubr
        </CharString>
        <CharString name="otilde">
          -18 callsubr
          30 -16 callgsubr
          26 76 16 24 callgsubr
          17 76 hintmask 1100010010000000
          -101 callsubr
          hintmask 0010100100000000
          -26 419 -67 callgsubr
        </CharString>
        <CharString name="p">
          50 callsubr
          hstem
          54 73 284 71 vstem
          34 callsubr
          -106 0 -54 -92 vhcurveto
          7 75 rlineto
          -77 -694 69 257 hlineto
          33 callgsubr
          -217 -233 rmoveto
          33 callsubr
          -95 -29 -141 -117 hvcurveto
          endchar
        </CharString>
        <CharString name="paragraph">
          157 22 -21 228 58 375 66 hstem
          23 103 182 66 61 76 vstem
          346 656 rmoveto
          0 134 -9 0 vhcurveto
          -45 42 rlineto
          -684 65 vlineto
          22 701 rlineto
          0 -187 22 -81 -30 -201 -5 -235 -148 125 -111 128 21 20 4 6 18 vhcurveto
          -7 51 rlineto
          -2 -11 -10 -1 -10 hhcurveto
          -182 11 194 -1 95 28 87 77 24 17 -2 -8 32 hvcurveto
          -32 37 19 -230 11 -230 6 -228 rlinecurve
          73 3 rlineto
          -4 135 -3 135 136 vvcurveto
          3 276 rlineto
          endchar
        </CharString>
        <CharString name="parenleft">
          59 callgsubr
          25 81 vstem
          239 752 rmoveto
          -36 42 rlineto
          -120 -97 -58 -181 -155 vvcurveto
          -136 56 -239 125 -106 vhcurveto
          38 36 rlineto
          -91 107 -47 216 125 vvcurveto
          133 38 167 95 88 vhcurveto
          endchar
        </CharString>
        <CharString name="parenright">
          59 callgsubr
          138 81 vstem
          5 752 rmoveto
          95 -88 38 -167 -133 vvcurveto
          -125 -47 -216 -91 -107 vhcurveto
          38 -36 rlineto
          125 106 56 239 136 vvcurveto
          155 -58 181 -120 97 vhcurveto
          endchar
        </CharString>
        <CharString name="partialdiff">
          61 -13 callgsubr
          208 -20 hstem
          27 76 265 76 vstem
          444 -102 callgsubr
          -217 426 rmoveto
          217 -178 17 -252 0 vvcurveto
          2 59 -1 5 -2 hvcurveto
          309 -199 162 0 vhcurveto
          endchar
        </CharString>
        <CharString name="percent">
          143 8 callsubr
          hintmask 1011111111000000
          -55 callgsubr
          hintmask 0111111111000000
          53 -8 rlineto
          endchar
        </CharString>
        <CharString name="period">
          -273 3 85 hstem
          29 86 vstem
          115 46 rmoveto
          19 callsubr
        </CharString>
        <CharString name="periodcentered">
          -253 301 85 hstem
          39 86 vstem
          125 344 rmoveto
          19 callsubr
        </CharString>
        <CharString name="perthousand">
          387 8 callsubr
          22 63 97 62 hintmask 1011111111110000
          -55 callgsubr
          hintmask 0111111111110000
          53 -8 rlineto
          604 174 5 callsubr
          -51 -109 vhcurveto
          hintmask 1011111111110000
          -31 callgsubr
          endchar
        </CharString>
        <CharString name="pi">
          -35 23 -21 479 26 -26 62 hstemhm
          2 154 -80 80 60 80 -80 165 hintmask 10110010
          381 543 rmoveto
          -379 -62 379 hlineto
          hintmask 11001100
          -305 29 rmoveto
          -508 80 503 vlineto
          60 5 rmoveto
          -508 80 503 vlineto
          endchar
        </CharString>
        <CharString name="plus">
          -35 159 191 -67 194 hstemhm
          32 190 -73 73 -73 201 hintmask 10001000
          350 289 rmoveto
          61 vlineto
          hintmask 10100000
          -318 -73 hlineto
          hintmask 10001000
          117 -118 rmoveto
          hintmask 10100000
          73 hlineto
          hintmask 01010000
          318 -73 vlineto
          endchar
        </CharString>
        <CharString name="plusminus">
          -6 28 73 58 191 -67 194 hstemhm
          46 190 -67 195 hintmask 11001000
          364 289 rmoveto
          61 vlineto
          hintmask 11010000
          -318 -73 hlineto
          hintmask 11001000
          129 -118 rmoveto
          hintmask 11010000
          61 hlineto
          hintmask 10110000
          318 -73 vlineto
          hintmask 11001000
          201 -449 rmoveto
          73 vlineto
          hintmask 11010000
          -318 -73 hlineto
          endchar
        </CharString>
        <CharString name="product">
          33 26 -21 625 25 -25 69 1 -20 hstemhm
          24 166 -86 86 54 87 hintmask 11101010
          24 700 rmoveto
          -70 398 vlineto
          7 68 rlineto
          hintmask 11011010
          hintmask 11010110
          -325 -42 rmoveto
          -651 65 vlineto
          42 649 rlineto
          33 2 rmoveto
          -651 87 651 vlineto
          endchar
        </CharString>
        <CharString name="q">
          100 -157 -21 154 75 420 48 -48 64 hstem
          26 72 284 80 vstem
          378 520 rmoveto
          6 -72 rlineto
          -51 87 -94 8 callgsubr
          -121 -92 -111 -176 -148 68 -124 115 hvcurveto
          0 121 0 52 100 vhcurveto
          -254 80 696 vlineto
          -81 -258 rmoveto
          -162 -6 -92 -47 -53 hhcurveto
          -93 -39 87 128 150 89 55 60 64 70 -62 -149 hvcurveto
          endchar
        </CharString>
        <CharString name="question">
          17 -39 83 645 57 hstemhm
          22 91 47 62 -62 76 85 89 hintmask 11101100
          236 2 20 callgsubr
          hintmask 11110100
          -14 90 rmoveto
          203 188 29 197 vvcurveto
          100 -41 125 -157 vhcurveto
          -165 -4 -25 -131 -49 vvcurveto
          0 0 -49 17 -55 vhcurveto
          83 12 rlineto
          -7 28 -2 26 23 vvcurveto
          93 49 49 56 67 36 -81 -79 vhcurveto
          -188 -161 -41 -209 vvcurveto
          endchar
        </CharString>
        <CharString name="questiondown">
          13 -269 57 645 83 hstemhm
          21 89 85 76 -62 62 47 91 hintmask 11110100
          195 475 rmoveto
          -23 19 -19 23 23 18 19 23 22 -18 19 -23 -23 -19 -19 -22 vhcurveto
          hintmask 11101100
          14 -90 rmoveto
          -203 -188 -29 -197 vvcurveto
          -100 41 -125 157 vhcurveto
          165 4 25 131 49 vvcurveto
          0 0 49 -17 55 vhcurveto
          -83 -12 rlineto
          7 -28 2 -26 -23 vvcurveto
          -93 -49 -49 -56 -67 -36 81 79 vhcurveto
          188 161 41 209 vvcurveto
          endchar
        </CharString>
        <CharString name="quotedbl">
          -160 480 -21 254 -20 hstem
          106 40 vstem
          113 713 rmoveto
          -82 hlineto
          21 -254 rlineto
          47 hlineto
          129 244 rmoveto
          -82 -244 55 hlineto
          endchar
        </CharString>
        <CharString name="quotedblbase">
          -155 -39 41 callsubr
          48 -39 callgsubr
        </CharString>
        <CharString name="quotedblleft">
          -163 559 18 callsubr
          25 91 19 91 vstem
          135 584 rmoveto
          -32 callgsubr
          -110 hmoveto
          -32 callgsubr
          endchar
        </CharString>
        <CharString name="quotedblright">
          -164 559 41 callsubr
          646 -39 callgsubr
        </CharString>
        <CharString name="quoteleft">
          -273 558 18 callsubr
          25 91 vstem
          25 583 rmoveto
          -32 callgsubr
          endchar
        </CharString>
        <CharString name="quoteright">
          -274 558 42 callsubr
          vstem
          120 645 rmoveto
          -69 callgsubr
        </CharString>
        <CharString name="quotesinglbase">
          -21 callgsubr
        </CharString>
        <CharString name="quotesingle">
          -275 480 -21 254 -20 hstem
          99 713 rmoveto
          -68 hlineto
          21 -254 rlineto
          47 hlineto
          endchar
        </CharString>
        <CharString name="r">
          53 callgsubr
          hstem
          58 74 204 66 vstem
          -79 callgsubr
          endchar
        </CharString>
        <CharString name="racute">
          53 callgsubr
          51 -21 175 -46 callsubr
          81 141 -92 callsubr
        </CharString>
        <CharString name="radical">
          -97 4 -21 721 -20 hstem
          308 691 rmoveto
          -73 13 -111 -697 17 -5 -59 222 -78 -13 82 -228 rlineto
          97 hlineto
          endchar
        </CharString>
        <CharString name="rcaron">
          53 callgsubr
          49 -21 169 -46 callsubr
          -47 195 -93 callgsubr
        </CharString>
        <CharString name="rcommaaccent">
          2 -156 -10 callsubr
          79 -21 476 65 hstemhm
          58 74 -70 73 201 66 hintmask 00111010
          -79 callgsubr
          hintmask 11000100
          -166 -616 -102 callsubr
        </CharString>
        <CharString name="registered">
          -41 281 35 38 113 -30 30 126 34 37 32 hstemhm
          32 43 45 155 24 44 hintmask 11011111
          275 539 rmoveto
          63 -45 25 -43 -14 -32 -2 -9 -22 vhcurveto
          1 -35 0 -41 -35 vvcurveto
          -48 0 -54 -2 -49 vhcurveto
          36 hlineto
          hintmask 10111111
          2 83 rlineto
          65 2 54 42 58 vvcurveto
          -94 54 rmoveto
          45 2 -51 -7 -2 -1 -64 -70 -2 hvcurveto
          3 41 rlineto
          27 3 29 2 27 vhcurveto
          1 6 5 1 5 hhcurveto
          74 -237 rmoveto
          -21 37 -23 41 -13 29 -31 -8 rcurveline
          35 -102 rlineto
          141 149 rmoveto
          115 -50 79 -105 -95 -61 -79 -115 -133 70 -88 86 85 70 85 136 vhcurveto
          -44 hmoveto
          -116 -50 -70 -61 -63 -50 74 112 97 43 65 70 77 34 -65 -97 vhcurveto
          endchar
        </CharString>
        <CharString name="ring">
          -237 540 49 76 50 hstem
          0 51 76 52 vstem
          51 627 -80 callsubr
        </CharString>
        <CharString name="s">
          36 callsubr
          16 callgsubr
          hintmask 11101000
          406 350 rmoveto
          -52 callsubr
          hintmask 11110000
          -71 callgsubr
          hintmask 11101000
          -7 callsubr
          endchar
        </CharString>
        <CharString name="sacute">
          36 callsubr
          50 -21 175 -86 callgsubr
          50 354 -92 callsubr
        </CharString>
        <CharString name="scaron">
          36 callsubr
          59 -21 169 -86 callgsubr
          -57 419 -93 callgsubr
        </CharString>
        <CharString name="scedilla">
          10 -139 205 -73 -21 26 68 426 75 hstemhm
          24 81 115 40 47 79 -67 89 hintmask 10011110
          202 60 callgsubr
          hintmask 01111110
          32 -26 20 -25 vhcurveto
          10 26 rlineto
          142 6 25 96 47 vvcurveto
          52 -30 74 -139 23 vhcurveto
          -74 12 -38 45 38 vvcurveto
          66 46 35 68 vhcurveto
          hintmask 10011101
          -7 callsubr
          88 -3 rlineto
          -52 callsubr
          hintmask 10011110
          -55 callsubr
          15 -146 106 -25 41 -4 rlinecurve
          -24 -51 -45 callgsubr
        </CharString>
        <CharString name="scircumflex">
          36 callsubr
          50 -21 172 -86 callgsubr
          -10 274 -104 callgsubr
        </CharString>
        <CharString name="section">
          60 -110 53 846 57 hstemhm
          32 96 -76 96 183 89 -66 98 hintmask 11101000
          350 114 rmoveto
          50 28 20 49 50 vvcurveto
          -41 callgsubr
          hintmask 11100100
          -51 callgsubr
          -42 callgsubr
          hintmask 11011000
          -208 299 -30 -147 vvcurveto
          -32 -12 -22 -17 -15 vhcurveto
          -205 386 rmoveto
          -33 -44 -12 -57 -51 vvcurveto
          -112 71 -50 86 -51 vhcurveto
          72 -43 50 -48 -61 -38 callsubr
          -13 vlineto
          -109 90 -77 115 47 callgsubr
          vhcurveto
          -70 45 -37 45 78 vvcurveto
          25 3 24 8 23 vhcurveto
          endchar
        </CharString>
        <CharString name="semicolon">
          -228 -39 -21 471 85 hstem
          48 86 vstem
          134 454 -50 callsubr
          5 -406 rmoveto
          -69 callgsubr
        </CharString>
        <CharString name="seven">
          -56 20 -21 626 73 hstem
          334 698 rmoveto
          -315 hlineto
          -7 -73 rlineto
          292 hlineto
          -10 44 -101 -231 -82 -206 -43 -233 rlinecurve
          99 4 23 205 68 222 90 193 rlinecurve
          endchar
        </CharString>
        <CharString name="six">
          51 -18 63 350 70 201 61 hstemhm
          36 82 -82 100 214 87 hintmask 11101100
          437 241 rmoveto
          153 -4 -86 71 -86 hhcurveto
          -8 -7 0 -1 -7 hvcurveto
          0 -117 -14 -23 -184 vhcurveto
          37 -116 rlineto
          245 109 0 0 73 32 -106 -63 -123 -55 -58 -49 vhcurveto
          hintmask 11110100
          -67 -61 95 191 295 83 40 41 11 60 -4 -101 16 hvcurveto
          89 15 rlineto
          141 -21 -118 10 -32 hhcurveto
          -144 -67 -171 -198 -222 64 -154 143 126 68 104 155 hvcurveto
          endchar
        </CharString>
        <CharString name="slash">
          -18 15 -21 719 -20 hstem
          381 694 rmoveto
          -87 19 -276 -706 60 -13 rlineto
          endchar
        </CharString>
        <CharString name="space">
          -186 endchar
        </CharString>
        <CharString name="sterling">
          -88 -2 64 -47 -21 166 60 240 40 hstemhm
          33 95 -68 68 -68 125 39 63 hintmask 01110101
          131 357 rmoveto
          68 12 35 35 32 14 -26 -48 -12 -2 -16 -5 -19 vhcurveto
          66 -7 rlineto
          10 34 0 28 0 vvcurveto
          26 -8 80 -103 -97 -25 -72 -56 vhcurveto
          -106 2 -1 -105 vvcurveto
          -53 0 -59 -1 -54 vhcurveto
          226 8 rlineto
          62 vlineto
          hintmask 10111001
          -2 -28 -37 0 -28 hhcurveto
          -19 -24 0 1 -23 hvcurveto
          3 121 0 12 161 vvcurveto
          hintmask 10110011
          54 -197 rmoveto
          60 vlineto
          hintmask 10111001
          -152 -60 hlineto
          endchar
        </CharString>
        <CharString name="t">
          -149 58 callsubr
          hstem
          103 65 vstem
          100 710 rmoveto
          -30 callgsubr
          endchar
        </CharString>
        <CharString name="tbar">
          -149 23 -21 294 54 131 62 -62 226 3 -20 hstem
          100 67 vstem
          242 296 rmoveto
          54 -72 vlineto
          2 131 18 callgsubr
          -75 5 4 callsubr
          1 -131 rlineto
          -74 -54 74 hlineto
          3 -294 rlineto
          60 hlineto
          4 294 rlineto
          endchar
        </CharString>
        <CharString name="tcaron">
          -7 58 callsubr
          -134 -10 callsubr
          54 -20 hstemhm
          103 65 137 73 hintmask 11100011
          100 710 rmoveto
          -30 callgsubr
          hintmask 11011111
          203 -66 -102 callsubr
        </CharString>
        <CharString name="tcommaaccent">
          -149 -139 -10 callsubr
          79 -21 479 62 167 -20 hstemhm
          101 73 -71 65 hintmask 11111010
          100 710 rmoveto
          hintmask 11111100
          -30 callgsubr
          -1 -778 -102 callsubr
        </CharString>
        <CharString name="thorn">
          50 callsubr
          191 57 callsubr
          61 -61 73 284 71 hintmask 11111010
          34 callsubr
          -119 0 -50 -108 vhcurveto
          299 -61 -902 69 257 vlineto
          33 callgsubr
          -72 -18 rmoveto
          -128 -7 -44 -87 -94 hhcurveto
          hintmask 11110110
          33 callsubr
          hvcurveto
          -7 -1 -7 -7 vvcurveto
          endchar
        </CharString>
        <CharString name="three">
          29 -23 54 297 37 302 63 hstemhm
          34 95 172 96 -71 89 hintmask 11110100
          415 497 rmoveto
          193 -109 40 -80 -95 -97 -62 -161 -23 2 -25 7 -26 vhcurveto
          93 15 rlineto
          -5 26 -2 24 22 vvcurveto
          91 37 56 57 56 44 -63 -82 3 vhcurveto
          0 -3 -157 -122 -10 -11 1 2 -11 vhcurveto
          -51 vlineto
          hintmask 11111000
          95 -18 37 -75 -68 vvcurveto
          -66 -33 -59 -49 -7 -83 5 147 22 2 26 5 29 vhcurveto
          -91 7 rlineto
          -3 -20 -1 -18 -18 vvcurveto
          -136 78 -85 56 -10 vhcurveto
          -2 11 14 -1 15 hhcurveto
          67 94 27 134 20 hvcurveto
          0 1 8 12 vvcurveto
          44 -14 103 -130 44 vhcurveto
          -3 -21 rlineto
          hintmask 11110100
          161 4 166 3 hvcurveto
          endchar
        </CharString>
        <CharString name="threequarters">
          111 30 callgsubr
          -87 39 -39 173 103 43 25 -20 hstemhm
          30 63 65 64 -52 52 198 63 hintmask 0110010111101000
          427 -2 callgsubr
          hintmask 1000010111101000
          330 170 rmoveto
          -133 hlineto
          hintmask 0101000111101000
          40 callsubr
          hintmask 1000010111101000
          hintmask 0100100111101000
          -75 201 rmoveto
          hintmask 1000010111101000
          -313 63 vlineto
          hintmask 0100100111011000
          313 vlineto
          -252 135 -8 callsubr
          hintmask 1000001111101000
          41 callgsubr
          47 -7 18 -27 -22 vvcurveto
          hintmask 1000010111101000
          -20 callgsubr
        </CharString>
        <CharString name="threesuperior">
          -150 306 39 -39 173 103 43 hstemhm
          34 63 65 64 -52 52 hintmask 01110100
          235 528 -8 callsubr
          41 callgsubr
          hintmask 10111000
          47 -7 18 -27 -22 vvcurveto
          -20 callgsubr
        </CharString>
        <CharString name="tilde">
          -184 571 -16 callgsubr
          0 24 callgsubr
          hintmask 10101000
          223 697 -67 callsubr
          hintmask 11010000
          -98 callgsubr
          hintmask 10110000
          -29 callsubr
        </CharString>
        <CharString name="trademark">
          105 337 -21 22 -21 312 44 5 46 callsubr
          hstemhm
          105 42 106 215 hintmask 10100110
          45 674 rmoveto
          -45 179 vlineto
          3 44 rlineto
          -122 -21 rmoveto
          -336 42 336 vlineto
          hintmask 10001110
          321 27 rmoveto
          -77 hlineto
          -40 -294 14 -7 rlineto
          hintmask 01010110
          -34 300 rlineto
          -78 -356 hlineto
          18 -2 37 286 -18 7 39 -272 rlineto
          54 hlineto
          47 263 -14 -7 21 -280 rlineto
          31 hlineto
          endchar
        </CharString>
        <CharString name="two">
          19 11 58 625 49 hstem
          29 87 200 89 vstem
          399 447 rmoveto
          4 28 2 25 24 vvcurveto
          152 -82 67 -119 -118 -57 -92 -101 -33 4 -47 16 -50 vhcurveto
          78 15 rlineto
          -8 35 -3 33 29 vvcurveto
          101 41 61 54 50 55 -35 -118 -20 -2 -22 -3 -24 vhcurveto
          0 -34 -184 -230 -221 vhcurveto
          4 -59 rlineto
          336 58 -280 hlineto
          -16 -35 rlineto
          245 178 63 235 0 vvcurveto
          endchar
        </CharString>
        <CharString name="twosuperior">
          -143 315 41 231 38 hstem
          37 59 78 61 vstem
          235 528 rmoveto
          -2 callsubr
          -71 -82 -76 -47 -39 vhcurveto
          59 callsubr
          58 46 53 57 69 vvcurveto
          endchar
        </CharString>
        <CharString name="u">
          -32 callsubr
          hstemhm
          45 78 218 69 hintmask 10111000
          -100 callsubr
          hintmask 01111000
          -46 callgsubr
          endchar
        </CharString>
        <CharString name="uacute">
          -32 callsubr
          45 -21 175 -83 callsubr
          -7 128 -92 callsubr
        </CharString>
        <CharString name="ubreve">
          -32 callsubr
          38 47 68 31 callsubr
          28 49 callgsubr
          -9 69 hintmask 1011111010000000
          -100 callsubr
          hintmask 0111111010000000
          -46 callgsubr
          hintmask 1011111100000000
          -65 143 -97 callgsubr
        </CharString>
        <CharString name="ucircumflex">
          -32 callsubr
          58 -21 172 -83 callsubr
          -80 61 -104 callgsubr
        </CharString>
        <CharString name="udieresis">
          -32 callsubr
          44 97 34 callgsubr
          -11 45 callsubr
          -17 69 hintmask 10101001
          -100 callsubr
          hintmask 01101001
          -46 callgsubr
          hintmask 00010110
          -57 86 -105 callsubr
        </CharString>
        <CharString name="ugrave">
          -32 callsubr
          54 -21 167 -83 callsubr
          -156 60 -72 callgsubr
        </CharString>
        <CharString name="uhungarumlaut">
          -32 callsubr
          54 -21 201 -83 callsubr
          40 137 -52 callgsubr
        </CharString>
        <CharString name="umacron">
          -32 callsubr
          59 66 34 callgsubr
          218 69 hintmask 10101100
          -100 callsubr
          hintmask 01101100
          -46 callgsubr
          hintmask 00010000
          -71 52 -28 callgsubr
        </CharString>
        <CharString name="underscore">
          -6 -146 73 hstem
          364 -146 11 callsubr
        </CharString>
        <CharString name="uni00AD">
          26 callgsubr
        </CharString>
        <CharString name="uni0312">
          -273 573 -10 callsubr
          hstem
          34 73 vstem
          34 589 -4 callgsubr
        </CharString>
        <CharString name="uni0315">
          -274 573 43 callgsubr
          vstem
          111 639 -102 callsubr
        </CharString>
        <CharString name="uni0326">
          -265 -174 43 callgsubr
          vstem
          111 -108 -102 callsubr
        </CharString>
        <CharString name="uogonek">
          63 -125 188 -74 -14 callsubr
          hstemhm
          45 78 191 45 -18 69 hintmask 10011010
          438 -101 -40 callsubr
          hintmask 00111100
          -10 -7 9 10 18 15 23 14 16 hvcurveto
          17 hlineto
          10 506 rlineto
          -64 hlineto
          hintmask 01011010
          -99 callgsubr
          hintmask 00111010
          6 -170 rlineto
          8 hlineto
          hintmask 10011100
          -19 -21 -19 -26 -26 vvcurveto
          15 callgsubr
        </CharString>
        <CharString name="uring">
          -32 callsubr
          45 49 76 50 34 callgsubr
          27 51 76 52 12 69 hintmask 1010010010000000
          -100 callsubr
          hintmask 0110010010000000
          -46 callgsubr
          hintmask 0001101100000000
          -214 125 -80 callsubr
        </CharString>
        <CharString name="utilde">
          -32 callsubr
          55 -16 callgsubr
          45 78 7 24 callgsubr
          -21 69 hintmask 1010001001000000
          -100 callsubr
          hintmask 0110001001000000
          -46 callgsubr
          hintmask 0001010010000000
          -62 174 -44 callgsubr
        </CharString>
        <CharString name="v">
          -2 22 14 callgsubr
          hstem
          325 520 rmoveto
          -117 -464 -112 464 -88 -14 147 -505 rlineto
          97 hlineto
          162 507 rlineto
          endchar
        </CharString>
        <CharString name="w">
          44 callgsubr
          hstem
          17 callgsubr
          vstem
          -99 callsubr
          endchar
        </CharString>
        <CharString name="wacute">
          165 -11 67 464 -21 27 -20 168 -59 callgsubr
          -70 305 -92 callsubr
        </CharString>
        <CharString name="wcircumflex">
          44 callgsubr
          24 48 callgsubr
          17 callgsubr
          hintmask 11001110
          -99 callsubr
          hintmask 00110000
          -133 235 -104 callgsubr
        </CharString>
        <CharString name="wdieresis">
          44 callgsubr
          22 97 hstemhm
          43 82 46 95 -4 75 -16 96 37 84 hintmask 11010101
          -99 callsubr
          hintmask 00101010
          -121 272 -105 callsubr
        </CharString>
        <CharString name="wgrave">
          165 -11 67 469 -21 22 -20 165 -59 callgsubr
          -216 233 -72 callgsubr
        </CharString>
        <CharString name="x">
          -12 13 -21 526 -20 hstem
          390 27 rmoveto
          -39 67 -50 78 -49 76 53 77 54 83 40 69 -91 41 rcurveline
          -23 -56 -38 -71 -42 -71 -50 79 -42 71 -18 46 -93 -34 rcurveline
          34 -55 59 -88 65 -95 rrcurveto
          -75 -122 -72 -103 0 vvcurveto
          55 -27 rlineto
          0 62 82 74 105 vhcurveto
          44 -65 46 -65 39 -57 rrcurveto
          endchar
        </CharString>
        <CharString name="y">
          -6 callgsubr
          hstem
          45 78 216 61 vstem
          -96 callsubr
          endchar
        </CharString>
        <CharString name="yacute">
          -6 callgsubr
          43 -21 175 -82 callsubr
          -23 126 -92 callsubr
        </CharString>
        <CharString name="ycircumflex">
          -6 callgsubr
          67 -21 172 -82 callsubr
          -93 70 -104 callgsubr
        </CharString>
        <CharString name="ydieresis">
          -6 callgsubr
          55 97 34 callgsubr
          1 45 callsubr
          -31 61 hintmask 11101001
          -96 callsubr
          hintmask 00010110
          -55 97 -105 callsubr
        </CharString>
        <CharString name="yen">
          -62 19 -21 81 56 19 56 282 -20 hstemhm
          72 136 -66 66 -66 136 hintmask 11110100
          246 492 rmoveto
          -20 -87 -24 -85 -27 -88 -24 85 -24 90 -18 84 -88 -4 rcurveline
          35 -108 41 -110 43 -96 5 -175 rcurveline
          58 hlineto
          10 177 42 97 42 111 36 109 rlinecurve
          hintmask 11110010
          -55 -334 rmoveto
          52 vlineto
          hintmask 11111000
          -206 -60 hlineto
          hintmask 11110010
          206 -71 rmoveto
          56 -205 -56 vlineto
          endchar
        </CharString>
        <CharString name="ygrave">
          -6 callgsubr
          48 -21 167 -82 callsubr
          -148 54 -72 callgsubr
        </CharString>
        <CharString name="z">
          36 callgsubr
          hstem
          -48 callgsubr
          endchar
        </CharString>
        <CharString name="zacute">
          36 callgsubr
          64 37 callsubr
          -38 callgsubr
          -18 154 -92 callsubr
        </CharString>
        <CharString name="zcaron">
          36 callgsubr
          65 -21 169 -20 hstemhm
          -38 callgsubr
          -116 211 -93 callgsubr
        </CharString>
        <CharString name="zdotaccent">
          36 callgsubr
          49 97 hstemhm
          151 97 -38 callgsubr
          -118 98 -72 callsubr
        </CharString>
        <CharString name="zero">
          80 -26 63 630 63 hstem
          36 93 239 92 vstem
          460 352 rmoveto
          263 -64 115 -148 -141 -71 -118 -260 -209 101 -169 111 112 100 169 209 vhcurveto
          -92 hmoveto
          -174 -46 -141 -74 -73 -46 135 169 240 42 86 77 80 40 -83 -232 vhcurveto
          endchar
        </CharString>
      <CharString index="0">
        432 56 callgsubr
        -105 callgsubr
        -18 -1 -18 -1 -19 vhcurveto
        67 -2 rlineto
        9 106 4 170 0 vvcurveto
        -76 -136 rmoveto
        -87 callgsubr
        return
      </CharString>
      <CharString index="1">
        431 314 rmoveto
        -104 callsubr
        -212 37 -125 141 138 61 100 220 17 vhcurveto
        return
      </CharString>
      <CharString index="2">
        175 -55 95 -157 vhcurveto
        0 -150 -7 -32 -149 vhcurveto
        82 -26 rlineto
        64 13 41 49 61 hhcurveto
        117 5 -124 -89 hvcurveto
        -76 callsubr
        7 6 49 callsubr
        vhcurveto
        0 86 6 57 61 vhcurveto
        return
      </CharString>
      <CharString index="3">
        rmoveto
        -74 141 rlineto
        -52 hlineto
        -75 -141 61 -31 51 144 rlineto
        -26 hlineto
        60 -142 rlineto
        endchar
      </CharString>
      <CharString index="4">
        442 374 rmoveto
        -77 callsubr
        129 86 193 210 vhcurveto
        -91 -4 rmoveto
        -89 callsubr
        return
      </CharString>
      <CharString index="5">
        291 rmoveto
        155 -65 107 -143 -65 callsubr
        115 93 114 187 vhcurveto
        -76 -1 rmoveto
        -84 callgsubr
        return
      </CharString>
      <CharString index="6">
        hintmask 11100000
        -107 callsubr
        return
      </CharString>
      <CharString index="7">
        -60 230 -52 242 -46 233 -126 -2 rcurveline
        -47 -232 -42 -241 -57 -230 91 1 rcurveline
        7 43 8 43 8 -60 callgsubr
        31 hvcurveto
        24 -131 rlineto
        return
      </CharString>
      <CharString index="8">
        -98 callsubr
        100 6 57 171 vhcurveto
        return
      </CharString>
      <CharString index="9">
        -35 3 63 -59 hhcurveto
        -48 -20 -53 -40 -10 1 -11 1 -10 hvcurveto
        61 4 rlineto
        -4 10 -3 11 12 vvcurveto
        13 3 14 16 vhcurveto
        21 14 -64 52 hhcurveto
        41 29 38 41 hvcurveto
        return
      </CharString>
      <CharString index="10">
        -68 callsubr
        -50 callgsubr
        vhcurveto
        -73 callgsubr
      </CharString>
      <CharString index="11">
        28 callsubr
        176 0 vvcurveto
        -94 callgsubr
        0 11 -125 10 -197 vhcurveto
        return
      </CharString>
      <CharString index="12">
        -39 -39 0 1 -39 hvcurveto
        5 -88 62 9 rlineto
        1 -53 0 -52 -52 vvcurveto
        -132 -2 -132 -3 -130 vhcurveto
        -20 -21 1 1 -21 hvcurveto
        -1 -76 rlineto
        return
      </CharString>
      <CharString index="13">
        85 -10 -31 35 -42 hhcurveto
        -42 -49 -37 -64 -34 hvcurveto
        0 -15 -29 64 callgsubr
        196 vlineto
        -94 4 rlineto
        0 15 -143 -202 vvcurveto
        -49 -1 -51 -2 -54 vhcurveto
        67 2 rlineto
        153 19 80 282 68 hhcurveto
        23 15 -41 -78 5 hvcurveto
        return
      </CharString>
      <CharString index="14">
        rmoveto
        -60 -142 rlineto
        26 hlineto
        -51 144 -61 -31 75 -138 rlineto
        52 hlineto
        74 138 rlineto
        endchar
      </CharString>
      <CharString index="15">
        rmoveto
        29 -137 27 -139 26 -139 rrcurveto
        -60 callsubr
        26 138 28 140 31 137 rrcurveto
        return
      </CharString>
      <CharString index="16">
        hintmask 1010000001000000
        19 callgsubr
        hintmask 1010000100000000
        -16 callsubr
        54 callgsubr
        -49 callgsubr
        hintmask 1010001000000000
        -45 callsubr
        hintmask 1100010000000000
        -17 callsubr
        hintmask 1010000001000000
        -95 callsubr
        return
      </CharString>
      <CharString index="17">
        28 callgsubr
        hintmask 11001100
        -106 callgsubr
        hintmask 00110000
        return
      </CharString>
      <CharString index="18">
        473 476 rmoveto
        -33 callsubr
        -237 86 -125 153 vhcurveto
        0 153 0 29 196 vhcurveto
        -63 callgsubr
        return
      </CharString>
      <CharString index="19">
        67 vstem
        -93 callsubr
        return
      </CharString>
      <CharString index="20">
        -73 -79 -79 -70 callgsubr
        68 -69 vhcurveto
        -12 -1 -13 -13 vvcurveto
        return
      </CharString>
      <CharString index="21">
        -20 16 callgsubr
        hintmask 11001010
        406 350 rmoveto
        -52 callsubr
        hintmask 11001100
        -71 callgsubr
        hintmask 11001010
        -7 callsubr
        hintmask 00110000
        return
      </CharString>
      <CharString index="22">
        325 704 rmoveto
        -31 -134 -37 -132 -43 -132 -38 131 -33 132 -30 133 -113 -6 rcurveline
        50 -154 56 -149 65 -145 7 -250 rcurveline
        70 hlineto
        15 255 64 148 57 150 52 153 rlinecurve
        return
      </CharString>
      <CharString index="23">
        -15 callgsubr
        -74 -59 90 136 117 51 80 82 91 41 -80 -117 vhcurveto
        return
      </CharString>
      <CharString index="24">
        -109 -33 -102 -2 2 hhcurveto
        -9 -132 1 195 7 -1 7 1 7 hvcurveto
        return
      </CharString>
      <CharString index="25">
        26 callsubr
        hintmask 11001100
        -101 callsubr
        hintmask 00110000
        return
      </CharString>
      <CharString index="26">
        387 3 rmoveto
        -47 81 -42 81 -36 82 98 35 90 80 6 120 rrcurveto
        -74 callgsubr
        15 16 1 2 16 hvcurveto
        return
      </CharString>
      <CharString index="27">
        -20 hstemhm
        -101 callgsubr
        hintmask 00011000
        return
      </CharString>
      <CharString index="28">
        301 526 rmoveto
        -87 -56 -90 -70 -26 hvcurveto
        160 vlineto
        -87 -6 rlineto
        0 12 -152 1 -379 vhcurveto
        74 -4 rlineto
        172 vlineto
        206 27 79 98 53 hhcurveto
        31 14 -25 -70 -28 -2 -40 -8 -46 hvcurveto
        60 -9 rlineto
        13 52 3 54 36 vvcurveto
        73 -26 68 -75 vhcurveto
        return
      </CharString>
      <CharString index="29">
        58 65 -47 -77 8 hvcurveto
        -268 hlineto
        17 123 120 1 0 vvcurveto
        return
      </CharString>
      <CharString index="30">
        54 695 rmoveto
        -691 343 -73 callsubr
        vlineto
        return
      </CharString>
      <CharString index="31">
        hintmask 11001000
        -85 callgsubr
        return
      </CharString>
      <CharString index="32">
        440 714 rmoveto
        -34 -607 -81 557 rlineto
        -93 hlineto
        -69 -574 -44 612 rlineto
        -99 hlineto
        83 -695 rlineto
        117 hlineto
        60 530 76 -532 rlineto
        106 hlineto
        79 709 rlineto
        return
      </CharString>
      <CharString index="33">
        180 -105 64 -124 -34 -80 -3 -25 -63 vhcurveto
        3 -98 2 -98 -98 vvcurveto
        -136 -3 -135 -4 -135 vhcurveto
        73 hlineto
        2 77 2 77 4 77 rrcurveto
        -1 8 8 0 8 hhcurveto
        return
      </CharString>
      <CharString index="34">
        -62 -6 rlineto
        -59 1 31 -50 70 hhcurveto
        62 35 49 63 hvcurveto
        endchar
      </CharString>
      <CharString index="35">
        rmoveto
        -128 133 -57 -56 150 -111 rlineto
        endchar
      </CharString>
      <CharString index="36">
        -79 callsubr
        vvcurveto
        66 46 35 68 vhcurveto
        return
      </CharString>
      <CharString index="37">
        -2 0 vvcurveto
        -64 -40 34 53 52 34 49 81 hvcurveto
        0 74 0 return
      </CharString>
      <CharString index="38">
        -81 callsubr
        endchar
      </CharString>
      <CharString index="39">
        23 -20 19 -23 -24 -19 -19 -23 -24 19 -19 24 23 20 19 24 vhcurveto
        return
      </CharString>
      <CharString index="40">
        -67 callsubr
        hintmask 0011001000000000
        -98 callgsubr
        hintmask 0010101000000000
        -29 callsubr
      </CharString>
      <CharString index="41">
        17 114 hvcurveto
        -89 7 rlineto
        -8 -94 -5 return
      </CharString>
      <CharString index="42">
        -20 hstemhm
        174 81 -76 callgsubr
        hintmask 00110000
        return
      </CharString>
      <CharString index="43">
        5 205 8 180 14 240 -117 -5 rcurveline
        5 -157 3 -157 -157 vvcurveto
        -18 callgsubr
        return
      </CharString>
      <CharString index="44">
        -78 6 rlineto
        -21 -142 -84 8 callgsubr
        -84 -55 105 201 202 61 98 90 1 107 0 -181 hvcurveto
        return
      </CharString>
      <CharString index="45">
        -20 hstemhm
        55 66 hintmask 01100100
        -81 callgsubr
        hintmask 10100100
        -62 callsubr
        hintmask 00011000
        return
      </CharString>
      <CharString index="46">
        48 11 48 7 50 4 rrcurveto
        -198 -9 -97 0 -5 hhcurveto
        -82 -52 104 202 202 58 98 88 1 105 0 -181 hvcurveto
        return
      </CharString>
      <CharString index="47">
        44 rrcurveto
        1 34 34 1 33 hhcurveto
        31 31 -1 -1 return
      </CharString>
      <CharString index="48">
        -20 hstemhm
        17 callgsubr
        hintmask 10101110
        -99 callsubr
        hintmask 01010000
        return
      </CharString>
      <CharString index="49">
        rmoveto
        0 4 48 81 vvcurveto
        69 -3 93 -10 109 vhcurveto
        -111 -13 rlineto
        14 -97 3 -108 -74 vvcurveto
        -270 -41 -98 -77 -60 -24 48 151 -1 vhcurveto
        -105 -4 rlineto
        -162 9 51 -93 124 hhcurveto
        144 65 99 221 18 hvcurveto
        return
      </CharString>
      <CharString index="50">
        402 557 rmoveto
        -60 21 -20 -42 rlineto
        11 -25 -29 6 -33 hhcurveto
        -29 callgsubr
        -100 28 -81 45 -53 hvcurveto
        -23 -49 52 -8 10 21 rlineto
        -20 29 33 -11 35 hhcurveto
        115 93 114 187 90 -22 74 -47 46 hvcurveto
        -7 -211 rmoveto
        -15 callgsubr
        -23 -22 8 16 -19 vhcurveto
        167 339 rlineto
        19 -34 10 -47 -56 vvcurveto
        -265 hmoveto
        117 51 80 82 22 19 -5 -9 17 vhcurveto
        -158 -338 rlineto
        -21 39 -12 53 63 vvcurveto
        return
      </CharString>
      <CharString index="51">
        -13 callsubr
        183 -487 rcurveline
        78 hlineto
        4 234 15 233 26 231 rrcurveto
        return
      </CharString>
      <CharString index="52">
        247 457 5 callsubr
        -50 -110 -89 52 -71 59 59 52 71 89 vhcurveto
        -62 hmoveto
        -64 -19 -53 -30 -30 -18 51 61 89 17 33 31 33 16 64 callgsubr
        350 -217 5 callsubr
        -51 -109 -31 callgsubr
        -36 391 rmoveto
        -58 19 -257 -576 rlineto
        return
      </CharString>
      <CharString index="53">
        77 7 -21 313 73 291 60 hstem
        70 77 -77 101 204 99 vstem
        161 -14 rmoveto
        195 118 226 183 -3 callsubr
        hvcurveto
        -7 -330 rlineto
        -44 -73 43 hlineto
        -6 -291 rlineto
        14 -22 87 8 callgsubr
        89 313 rmoveto
        73 -89 vlineto
        21 291 rlineto
        182 -2 11 -227 -54 vvcurveto
        -151 -71 -168 -166 -22 vhcurveto
        18 260 rlineto
        endchar
      </CharString>
      <CharString index="54">
        rmoveto
        4 20 18 2 16 hhcurveto
        140 5 -156 -21 -4 -6 -197 -215 hvcurveto
        return
      </CharString>
      <CharString index="55">
        rmoveto
        -55 59 -123 -134 28 -36 rlineto
        45 156 rmoveto
        -62 45 -111 -165 38 -31 rlineto
        endchar
      </CharString>
      <CharString index="56">
        61 53 -49 -93 -23 -3 -26 -7 -28 hvcurveto
        90 -12 rlineto
        18 55 0 49 0 vvcurveto
        return
      </CharString>
      <CharString index="57">
        -29 -13 27 25 6 1 5 1 5 return
      </CharString>
      <CharString index="58">
        8 187 12 187 14 187 rrcurveto
        return
      </CharString>
      <CharString index="59">
        33 506 rmoveto
        -68 247 vlineto
        -270 -376 11 -61 rlineto
        341 70 -261 hlineto
        265 372 rlineto
        63 vlineto
        return
      </CharString>
      <CharString index="60">
        -39 3 71 -66 hhcurveto
        -54 -22 -60 -44 -12 1 -12 1 -11 hvcurveto
        69 4 rlineto
        -5 12 -3 12 13 vvcurveto
        15 3 16 18 vhcurveto
        24 15 -72 58 hhcurveto
        46 33 43 45 return
      </CharString>
      <CharString index="61">
        6 -170 rlineto
        61 hlineto
        10 506 rlineto
        return
      </CharString>
      <CharString index="62">
        -41 callsubr
        11 callgsubr
      </CharString>
      <CharString index="63">
        -67 callsubr
        hintmask 0001100100000000
        -98 callgsubr
        hintmask 0001010100000000
        -29 callsubr
      </CharString>
      <CharString index="64">
        vvcurveto
        -4 0 -136 -108 vhcurveto
        17 -77 rlineto
        84 20 return
      </CharString>
      <CharString index="65">
        49 -27 131 -179 4 vhcurveto
        -170 -44 -125 -100 hvcurveto
        return
      </CharString>
      <CharString index="66">
        6 callgsubr
        vhcurveto
        -22 callsubr
        return
      </CharString>
      <CharString index="67">
        -31 29 -17 31 23 21 10 14 20 vhcurveto
        return
      </CharString>
      <CharString index="68">
        0 callgsubr
        110 hmoveto
        -69 callgsubr
      </CharString>
      <CharString index="69">
        hintmask 11000000
        -48 callgsubr
        hintmask 00110000
        return
      </CharString>
      <CharString index="70">
        -142 -64 -145 -209 return
      </CharString>
      <CharString index="71">
        363 81 rmoveto
        -27 callgsubr
        return
      </CharString>
      <CharString index="72">
        60 -13 70 188 71 159 69 return
      </CharString>
      <CharString index="73">
        56 17 -21 291 65 124 75 return
      </CharString>
      <CharString index="74">
        50 701 rmoveto
        4 -230 2 -231 -231 -11 callsubr
        9 233 15 233 19 232 -110 1 rcurveline
        -141 -1 -142 -2 -141 vhcurveto
        -190 -5 rlineto
        return
      </CharString>
      <CharString index="75">
        -26 20 -20 25 25 21 20 26 22 -16 20 -22 3 vhcurveto
        1 20 16 19 17 9 -13 15 rcurveline
        -49 -11 -25 -50 -47 vvcurveto
        return
      </CharString>
      <CharString index="76">
        -90 52 -71 59 59 52 71 90 vhcurveto
        -62 hmoveto
        -65 -19 -53 -30 -30 -18 51 62 89 17 32 31 33 16 -31 -85 vhcurveto
        return
      </CharString>
      <CharString index="77">
        4 callsubr
        4 -479 rlineto
        60 hlineto
        7 479 18 callgsubr
        rlineto
        return
      </CharString>
      <CharString index="78">
        -129 -80 -107 -155 return
      </CharString>
      <CharString index="79">
        rmoveto
        66 -205 -66 vlineto
        endchar
      </CharString>
      <CharString index="80">
        -2 -41 -41 -1 -40 hhcurveto
        -34 -35 0 2 -34 hvcurveto
        return
      </CharString>
      <CharString index="81">
        22 14 7 callsubr
        504 -20 return
      </CharString>
      <CharString index="82">
        24 callsubr
        166 0 vvcurveto
        82 -12 -26 37 -41 hhcurveto
        -41 -49 -38 -62 -39 hvcurveto
        0 -27 -41 -29 -79 vhcurveto
        return
      </CharString>
      <CharString index="83">
        256 -178 8 -33 return
      </CharString>
      <CharString index="84">
        -20 hstemhm
        hintmask 11000000
        -75 callgsubr
        hintmask 00110000
        return
      </CharString>
      <CharString index="85">
        -20 hstemhm
        25 -56 callsubr
        return
      </CharString>
      <CharString index="86">
        -265 -39 42 callsubr
        vstem
        120 48 rmoveto
        -69 callgsubr
      </CharString>
      <CharString index="87">
        -21 -12 -21 -18 -14 -21 3 29 9 1 12 4 19 vhcurveto
        -61 3 rlineto
        -3 -14 -1 -11 -7 vvcurveto
        -57 41 -25 52 45 51 34 47 16 -5 30 -33 22 vhcurveto
        48 20 -1 47 6 vvcurveto
        endchar
      </CharString>
      <CharString index="88">
        78 -315 rlineto
        110 hlineto
        -146 375 66 101 54 107 46 115 rlinecurve
        -114 8 -41 -154 -64 -145 -86 -121 rlinecurve
        7 138 10 138 13 139 rrcurveto
        return
      </CharString>
      <CharString index="89">
        -78 -1 -79 -1 -78 vhcurveto
        309 11 rlineto
        return
      </CharString>
      <CharString index="90">
        56 -29 63 630 64 return
      </CharString>
      <CharString index="91">
        61 3 60 39 callgsubr
        return
      </CharString>
      <CharString index="92">
        -140 -59 -86 -73 return
      </CharString>
      <CharString index="93">
        60 -6 7 callgsubr
        return
      </CharString>
      <CharString index="94">
        -10 74 423 66 return
      </CharString>
      <CharString index="95">
        385 702 rmoveto
        -259 vlineto
        -30 callsubr
        return
      </CharString>
      <CharString index="96">
        275 696 rmoveto
        -94 -232 -91 -241 -103 -230 90 1 rcurveline
        16 43 17 43 17 -60 callgsubr
        30 hvcurveto
        return
      </CharString>
      <CharString index="97">
        rmoveto
        -131 70 119 44 -7 88 -147 -99 rlineto
        -79 vlineto
        134 -94 rlineto
        return
      </CharString>
      <CharString index="98">
        rmoveto
        32 -26 25 -31 -32 -26 -25 -32 -32 26 -25 32 31 26 25 32 vhcurveto
        -4 -659 rmoveto
        -9 callsubr
        return
      </CharString>
      <CharString index="99">
        48 696 rmoveto
        4 -151 2 -150 -151 vvcurveto
        -84 -1 -85 -1 -84 vhcurveto
        83 hlineto
        1 63 1 64 3 63 36 42 33 43 32 45 rrcurveto
        return
      </CharString>
      <CharString index="100">
        10 callgsubr
        10 callsubr
        return
      </CharString>
      <CharString index="101">
        48 -225 67 137 74 472 -20 return
      </CharString>
      <CharString index="102">
        -352 -86 rmoveto
        -208 -1 -103 -2 -104 vhcurveto
        -60 callsubr
        55 139 56 139 59 137 rrcurveto
        return
      </CharString>
      <CharString index="103">
        rmoveto
        -21 16 -16 20 20 17 16 21 18 -13 16 -18 2 vhcurveto
        1 16 13 15 14 8 -11 12 rcurveline
        -39 -9 -20 -40 -38 vvcurveto
        endchar
      </CharString>
      <CharString index="104">
        hintmask 11001000
        -36 callsubr
        return
      </CharString>
      <CharString index="105">
        631 rmoveto
        -58 19 -257 -576 53 -8 rlineto
        return
      </CharString>
      <CharString index="106">
        388 -2 callgsubr
        -42 554 3 callgsubr
        return
      </CharString>
      <CharString index="107">
        rmoveto
        -81 callsubr
        return
      </CharString>
      <CharString index="108">
        0 4 122 80 6 6 -1 -1 6 vhcurveto
        return
      </CharString>
      <CharString index="109">
        -89 callsubr
        endchar
      </CharString>
      <CharString index="110">
        rmoveto
        -62 -49 37 -41 26 20 rlineto
        -243 60 309 vlineto
        return
      </CharString>
      <CharString index="111">
        -70 120 -625 65 625 153 vlineto
        7 68 rlineto
        return
      </CharString>
      <CharString index="112">
        47 -3 64 -42 -21 476 70 return
      </CharString>
      <CharString index="113">
        70 -44 52 -121 78 return
      </CharString>
      <CharString index="114">
        60 660 -20 return
      </CharString>
      <CharString index="115">
        0 0 vvcurveto
        return
      </CharString>
      <CharString index="116">
        -40 -2 -40 -40 vvcurveto
        347 -73 callsubr
        hlineto
        return
      </CharString>
      <CharString index="117">
        rmoveto
        32 -26 25 -32 -31 -26 -25 -32 return
      </CharString>
      <CharString index="118">
        -18 16 18 -11 25 hhcurveto
        endchar
      </CharString>
      <CharString index="119">
        33 -21 494 -20 return
      </CharString>
      <CharString index="120">
        hstemhm
        37 102 194 98 return
      </CharString>
      <CharString index="121">
        -21 519 -20 return
      </CharString>
      <CharString index="122">
        -40 callgsubr
        endchar
      </CharString>
      <CharString index="123">
        hstemhm
        24 81 202 79 -67 89 return
      </CharString>
      <CharString index="124">
        43 82 137 75 117 84 return
      </CharString>
      <CharString index="125">
        rlineto
        98 62 -97 hlineto
        2 162 return
      </CharString>
      <CharString index="126">
        237 87 rmoveto
        return
      </CharString>
      <CharString index="127">
        rmoveto
        23 -19 19 -23 -23 -18 -19 -23 -22 18 -19 23 23 19 19 22 vhcurveto
        return
      </CharString>
      <CharString index="128">
        391 rmoveto
        61 -318 -73 vlineto
        318 -142 rmoveto
        77 -318 -77 vlineto
        return
      </CharString>
      <CharString index="129">
        55 callsubr
        265 return
      </CharString>
      <CharString index="130">
        16 19 -21 706 -20 return
      </CharString>
      <CharString index="131">
        232 -55 55 return
      </CharString>
      <CharString index="132">
        128 48 return
      </CharString>
      <CharString index="133">
        -6 55 callgsubr
        364 277 11 callsubr
      </CharString>
      <CharString index="134">
        -20 hstemhm
        56 82 -82 109 return
      </CharString>
      <CharString index="135">
        -20 13 callgsubr
        return
      </CharString>
      <CharString index="136">
        279 4 77 -67 7 callsubr
        64 72 298 67 1 -20 return
      </CharString>
      <CharString index="137">
        80 156 -149 -21 126 44 -44 179 -179 201 return
      </CharString>
      <CharString index="138">
        53 callsubr
        194 67 return
      </CharString>
      <CharString index="139">
        -22 -26 -28 return
      </CharString>
      <CharString index="140">
        46 -105 113 8 callgsubr
        126 74 145 163 hvcurveto
        return
      </CharString>
      <CharString index="141">
        hstemhm
        45 78 return
      </CharString>
      <CharString index="142">
        55 15 -21 25 -21 665 63 return
      </CharString>
      <CharString index="143">
        -30 1 70 367 68 return
      </CharString>
      <CharString index="144">
        1 0 73 544 89 return
      </CharString>
      <CharString index="145">
        rmoveto
        26 32 16 43 return
      </CharString>
      <CharString index="146">
        2 -20 hstemhm
        return
      </CharString>
      <CharString index="147">
        287 rmoveto
        return
      </CharString>
      <CharString index="148">
        0 -1 -54 -50 vhcurveto
        -9 -6 2 -6 hhcurveto
        -5 -38 rlineto
        return
      </CharString>
      <CharString index="149">
        -8 64 -47 47 420 74 return
      </CharString>
      <CharString index="150">
        -10 callsubr
        hstem
        38 73 return
      </CharString>
      <CharString index="151">
        165 -11 67 470 -20 return
      </CharString>
      <CharString index="152">
        -21 172 -20 return
      </CharString>
      <CharString index="153">
        22 2 22 return
      </CharString>
      <CharString index="154">
        25 callgsubr
        74 77 6 callgsubr
        return
      </CharString>
      <CharString index="155">
        45 callgsubr
        hstemhm
        return
      </CharString>
      <CharString index="156">
        60 79 60 return
      </CharString>
      <CharString index="157">
        4 140 6 140 8 141 rrcurveto
        return
      </CharString>
      <CharString index="158">
        64 20 -21 699 -20 return
      </CharString>
      <CharString index="159">
        56 29 -21 196 76 return
      </CharString>
      <CharString index="160">
        2 6 -21 476 65 return
      </CharString>
      <CharString index="161">
        hintmask 1010000010000000
        return
      </CharString>
      <CharString index="162">
        277 73 hstem
        return
      </CharString>
      <CharString index="163">
        274 rmoveto
        return
      </CharString>
      <CharString index="164">
        -21 26 -21 706 57 callsubr
        90 return
      </CharString>
      <CharString index="165">
        -229 -193 -21 725 -20 return
      </CharString>
      <CharString index="166">
        -172 -99 -21 914 -20 hstem
        return
      </CharString>
      <CharString index="167">
        -139 38 callgsubr
        hvcurveto
        return
      </CharString>
      <CharString index="168">
        hhcurveto
        -37 callgsubr
        return
      </CharString>
      <CharString index="169">
        26 76 265 76 return
      </CharString>
      <CharString index="170">
        57 callsubr
        86 return
      </CharString>
      <CharString index="171">
        -31 -86 vhcurveto
        return
      </CharString>
</ttFont>
